<?xml version="1.0" standalone="no"?>
<!DOCTYPE svg PUBLIC "-//W3C//DTD SVG 20010904//EN"
 "http://www.w3.org/TR/2001/REC-SVG-20010904/DTD/svg10.dtd">
<svg version="1.0" xmlns="http://www.w3.org/2000/svg"
 width="1024.000000pt" height="1024.000000pt" viewBox="0 0 1024.000000 1024.000000"
 preserveAspectRatio="xMidYMid meet">

<g transform="translate(0.000000,1024.000000) scale(0.100000,-0.100000)"
fill="#000000" stroke="none">
<path d="M0 5120 l0 -5120 5119 0 5120 0 0 5120 0 5120 -5120 0 -5119 0 0
-5120z m5277 4984 c-3 -3 -12 -4 -19 -1 -8 3 -5 6 6 6 11 1 17 -2 13 -5z m-64
-44 c-3 -11 -7 -20 -9 -20 -2 0 -4 9 -4 20 0 11 4 20 9 20 5 0 7 -9 4 -20z
m91 -34 c-13 -34 -76 -43 -87 -12 -3 8 5 11 28 8 27 -3 34 0 40 18 4 14 11 18
16 13 5 -5 7 -18 3 -27z m27 -23 c-12 -20 -14 -14 -5 12 4 9 9 14 11 11 3 -2
0 -13 -6 -23z m-1861 -53 c0 -5 -5 -10 -11 -10 -5 0 -8 -4 -4 -9 9 -15 -15
-25 -28 -11 -9 9 -7 15 7 26 23 16 36 18 36 4z m3608 -5 c-10 -10 -49 -14 -43
-4 4 5 16 9 27 9 12 0 19 -2 16 -5z m7 -25 c-19 -21 -40 -26 -49 -11 -4 5 2 7
12 4 10 -2 24 3 31 11 8 9 16 16 19 16 3 0 -3 -9 -13 -20z m-3501 -65 c-4 -9
-16 -21 -28 -27 -19 -10 -19 -9 3 16 28 30 33 32 25 11z m1928 -125 c581 -29
1163 -155 1613 -350 28 -12 59 -25 70 -30 165 -69 444 -220 632 -342 541 -352
925 -721 1275 -1223 53 -76 178 -281 178 -292 0 -3 9 -17 19 -32 60 -84 228
-459 306 -681 184 -531 261 -948 272 -1480 8 -432 -20 -734 -108 -1155 -54
-256 -173 -651 -239 -790 -5 -11 -30 -67 -55 -125 -125 -282 -339 -625 -574
-920 -139 -173 -198 -238 -356 -391 -596 -579 -1225 -940 -2025 -1162 -301
-84 -587 -134 -930 -162 -717 -59 -1553 84 -2220 380 -578 256 -1056 594
-1517 1069 -400 413 -649 786 -873 1310 -231 541 -342 1073 -356 1711 -11 454
36 852 152 1294 168 644 453 1214 853 1706 120 147 410 443 547 557 168 140
448 341 597 430 565 335 1035 512 1630 613 378 64 724 84 1109 65z m-2797
-509 c-6 -5 -70 -6 -155 -2 l-145 8 155 1 c93 1 150 -2 145 -7z m5185 -1 c0
-5 -20 -10 -45 -10 -25 0 -45 5 -45 10 0 6 20 10 45 10 25 0 45 -4 45 -10z
m-6111 -514 c27 -29 20 -72 -15 -88 -32 -15 -64 13 -64 57 0 56 40 73 79 31z
m7001 4 c6 -12 10 -35 8 -53 -2 -26 -8 -33 -30 -35 -40 -5 -68 14 -68 45 0 55
67 86 90 43z m60 -49 c0 -44 -44 -91 -83 -91 l-32 1 38 14 c21 7 40 15 41 17
12 13 26 50 26 67 0 12 2 21 5 21 3 0 5 -13 5 -29z m-7035 -72 c-9 -14 -48
-28 -59 -21 -5 3 6 11 25 17 19 7 35 13 37 14 2 0 0 -4 -3 -10z m-1438 -4046
c-1 -312 -2 -59 -2 562 0 622 1 877 2 568 2 -309 2 -817 0 -1130z m9770 155
c-1 -233 -2 -45 -2 417 0 462 1 652 2 423 2 -229 2 -607 0 -840z m-1370 -2974
c-3 -3 -12 -4 -19 -1 -8 3 -5 6 6 6 11 1 17 -2 13 -5z m-6978 -66 c14 -25 14
-29 -5 -54 -23 -32 -48 -38 -69 -17 -18 18 -20 74 -3 91 20 20 61 10 77 -20z
m6975 21 c43 -20 39 -92 -6 -101 -27 -5 -43 9 -59 49 -9 24 -7 30 11 45 26 21
23 21 54 7z m85 -54 l0 -20 -9 20 c-5 11 -9 27 -9 35 -1 13 0 13 9 0 5 -8 9
-24 9 -35z m-175 -41 c3 -8 2 -12 -4 -9 -6 3 -10 10 -10 16 0 14 7 11 14 -7z
m-1189 -994 c17 -4 -80 -7 -215 -7 -156 0 -214 3 -160 7 122 9 340 9 375 0z
m-4232 -7 c-35 -2 -91 -2 -125 0 -35 2 -7 3 62 3 69 0 97 -1 63 -3z m432 -222
c96 -6 33 -8 -240 -9 -214 0 -362 3 -350 8 24 10 407 11 590 1z m3770 -1 c-4
-6 -156 -9 -428 -8 -232 1 -388 4 -347 8 130 11 782 11 775 0z m-2175 -105
c22 -23 22 -26 7 -49 -22 -33 -52 -41 -82 -22 -17 11 -25 26 -25 46 0 52 60
67 100 25z m-487 -3 c238 -1 366 -5 362 -12 -3 -5 -37 -8 -78 -6 -40 2 -479 5
-977 7 -498 2 -797 6 -665 9 231 5 576 5 1358 2z m2634 -5 c3 -4 -473 -6
-1058 -5 -757 2 -931 4 -604 8 621 7 1654 5 1662 -3z"/>
<path d="M4870 9689 c-736 -65 -1334 -243 -1920 -572 -212 -119 -312 -184
-550 -360 -454 -335 -838 -766 -1130 -1267 -208 -359 -362 -737 -465 -1147
-108 -431 -143 -677 -152 -1068 -20 -861 161 -1609 567 -2345 250 -454 701
-976 1114 -1288 39 -30 91 -71 116 -92 119 -98 432 -298 642 -409 261 -138
445 -212 843 -336 197 -61 558 -136 773 -161 307 -35 801 -34 1077 1 559 71
1063 216 1540 444 320 153 673 385 960 630 224 191 537 524 696 741 241 328
386 582 518 910 84 206 102 259 151 430 97 338 134 528 176 915 22 199 25 692
6 900 -42 449 -143 868 -316 1312 -347 891 -983 1626 -1861 2150 -108 64 -394
210 -508 259 -431 185 -943 308 -1445 349 -198 16 -669 18 -832 4z m700 -289
c368 -26 722 -92 1095 -204 433 -130 992 -430 1385 -743 78 -62 376 -338 420
-389 14 -16 59 -67 100 -114 150 -171 304 -382 421 -580 57 -95 229 -431 229
-446 0 -3 6 -20 14 -37 37 -82 76 -176 76 -184 0 -4 18 -55 39 -113 124 -329
219 -811 238 -1205 9 -182 0 -571 -16 -720 -67 -596 -253 -1200 -510 -1650
-217 -383 -457 -684 -814 -1023 -279 -264 -636 -512 -982 -682 -646 -316
-1302 -470 -2005 -470 -985 0 -1986 344 -2729 937 -609 487 -992 982 -1279
1653 -184 432 -279 811 -324 1290 -26 287 -10 836 32 1075 6 33 15 85 20 115
26 172 96 455 150 610 59 171 86 243 117 315 19 44 38 89 43 100 31 75 97 209
125 255 18 30 45 78 60 105 15 28 42 73 60 100 18 28 57 88 87 135 161 251
479 618 688 794 211 179 492 379 685 488 131 75 391 202 530 261 407 170 973
299 1460 330 121 8 452 6 585 -3z"/>
<path d="M4955 9343 c-194 -9 -505 -57 -750 -115 -109 -25 -163 -39 -280 -72
-5 -2 -23 -8 -38 -14 -16 -7 -32 -12 -37 -12 -14 0 -99 -29 -160 -55 -30 -13
-98 -40 -150 -61 -93 -36 -275 -118 -335 -150 -16 -9 -70 -39 -120 -67 -49
-27 -115 -64 -145 -80 -30 -16 -64 -37 -75 -46 -11 -9 -65 -47 -120 -83 -168
-113 -375 -286 -556 -467 -168 -169 -264 -276 -353 -394 -37 -51 -72 -91 -76
-90 -4 1 -7 -5 -6 -15 0 -9 -5 -16 -11 -15 -7 2 -13 -6 -13 -17 0 -11 -4 -19
-9 -17 -18 4 -256 -392 -340 -568 -84 -177 -121 -266 -185 -455 -171 -497
-246 -993 -233 -1535 13 -542 97 -971 287 -1460 61 -157 235 -511 315 -640
348 -564 902 -1097 1489 -1435 672 -387 1424 -589 2201 -593 333 -2 521 17
901 93 557 110 1131 352 1584 666 284 197 589 467 793 703 111 128 264 330
352 466 64 99 175 290 175 302 0 3 8 17 18 31 41 60 213 470 232 555 5 23 18
62 29 87 29 68 85 278 117 445 96 498 112 920 55 1425 -34 299 -55 402 -143
704 -60 208 -179 525 -219 587 -9 13 -24 47 -34 74 -29 77 -180 357 -197 363
-4 2 -8 10 -8 18 0 8 -4 14 -10 14 -5 0 -9 3 -8 8 3 10 -172 266 -217 317 -19
22 -38 45 -43 50 -27 37 -127 151 -183 210 -37 39 -79 83 -93 98 -14 15 -26
25 -26 21 0 -4 -42 35 -93 87 -51 52 -112 110 -136 129 -23 19 -49 41 -57 48
-8 7 -14 10 -14 5 0 -4 -5 0 -11 10 -5 9 -15 17 -22 17 -7 0 -18 9 -25 20 -7
11 -18 20 -25 20 -8 0 -31 18 -53 40 -33 33 -211 156 -285 196 -11 7 -25 16
-31 22 -6 6 -16 8 -22 6 -7 -3 -23 6 -37 19 -13 13 -45 35 -70 50 -102 58
-446 224 -483 232 -6 1 -20 5 -31 10 -11 4 -49 18 -85 32 -36 13 -74 28 -85
32 -35 15 -197 68 -255 84 -30 9 -86 25 -125 36 -69 20 -308 66 -499 96 -181
29 -639 43 -931 28z m365 -179 c0 -62 -1 -64 -25 -64 -23 0 -25 3 -25 50 0 38
-4 50 -15 50 -8 0 -15 4 -15 10 0 15 30 27 56 22 22 -4 24 -9 24 -68z m-277
53 c26 -18 33 -81 13 -112 -36 -55 -106 -20 -106 54 0 59 50 90 93 58z m571
-9 c21 -29 20 -77 0 -106 -22 -32 -74 -27 -91 8 -14 30 -2 98 19 111 24 15 57
9 72 -13z m-867 -87 c5 -56 4 -61 -14 -61 -16 0 -22 9 -27 36 -4 19 -14 38
-22 41 -7 3 -14 11 -14 19 0 17 52 45 63 34 5 -4 11 -35 14 -69z m1133 9 c0
-61 -16 -88 -46 -76 -13 5 -15 14 -9 42 5 30 3 36 -14 41 -12 3 -21 9 -21 13
0 17 51 48 70 43 17 -5 20 -14 20 -63z m-1434 12 c19 -12 32 -75 22 -102 -26
-70 -97 -47 -114 37 -10 50 50 93 92 65z m1704 -36 c0 -67 -11 -97 -34 -94
-18 3 -21 9 -18 46 2 25 -1 42 -7 42 -6 0 -11 9 -11 20 0 16 7 20 35 20 33 0
35 -2 35 -34z m286 -41 c18 -28 14 -85 -7 -111 -14 -17 -71 -18 -87 -2 -22 22
-14 86 13 113 31 32 60 32 81 0z m-2271 -2 c20 -50 24 -77 13 -97 -22 -41 -56
-48 -88 -16 -26 26 -28 97 -2 116 25 19 68 17 77 -3z m2551 -88 c21 -21 24
-31 19 -58 -10 -44 -33 -67 -66 -67 -34 0 -49 24 -49 78 0 30 6 43 23 55 31
22 44 21 73 -8z m-2856 -10 c5 -14 11 -45 12 -68 3 -36 0 -42 -16 -42 -14 0
-22 10 -28 34 -6 20 -17 35 -29 38 -23 6 -24 21 -2 45 23 26 52 23 63 -7z
m1895 -25 c127 -16 271 -39 320 -50 50 -11 122 -27 160 -35 232 -51 604 -190
845 -317 459 -241 791 -495 1084 -828 472 -536 772 -1163 905 -1890 44 -241
54 -365 54 -655 -1 -820 -204 -1495 -648 -2160 -62 -93 -122 -179 -132 -190
-10 -11 -31 -38 -48 -60 -113 -152 -391 -425 -615 -604 -197 -158 -387 -280
-617 -395 -456 -228 -864 -351 -1364 -413 -179 -22 -634 -25 -814 -5 -349 38
-715 121 -984 223 -143 55 -350 143 -441 189 -202 102 -537 324 -715 473 -105
88 -342 324 -442 440 -222 256 -388 508 -534 812 -252 526 -375 1033 -386
1599 -9 406 27 709 129 1106 150 585 471 1150 920 1621 178 186 510 451 728
581 581 347 1178 534 1875 587 188 15 460 3 720 -29z m1239 -72 c20 -28 20
-51 1 -88 -13 -24 -22 -30 -50 -30 -25 0 -37 6 -46 21 -13 24 -6 83 12 105 18
22 66 17 83 -8z m-3401 -45 c16 -43 17 -56 7 -68 -17 -21 -28 -19 -35 8 -4 12
-19 34 -33 49 -25 27 -25 28 -7 48 28 31 46 21 68 -37z m3647 -97 c0 -35 -25
-106 -38 -106 -4 0 -13 4 -21 9 -11 7 -11 15 -1 46 10 31 10 39 -1 46 -11 8
-10 12 5 24 35 26 56 19 56 -19z m-3929 -21 c11 -25 19 -56 17 -68 -5 -36 -32
-32 -51 8 -9 19 -23 35 -32 35 -20 0 -19 25 2 50 26 31 42 24 64 -25z m4175
-99 c7 -19 -44 -118 -59 -113 -7 2 -11 20 -9 44 2 31 -2 42 -15 48 -17 6 -17
7 1 21 25 18 75 18 82 0z m-4432 -39 c15 -19 26 -46 26 -60 0 -28 -32 -57 -62
-57 -29 0 -58 40 -58 79 0 40 8 55 30 64 29 11 39 7 64 -26z m4660 -113 c24
-23 20 -71 -9 -99 -28 -29 -42 -31 -73 -9 -27 19 -30 78 -5 106 20 22 66 24
87 2z m-4904 -61 c17 -26 30 -55 30 -65 0 -24 -37 -24 -44 0 -3 10 -19 26 -36
35 -16 10 -30 22 -30 26 0 8 38 51 46 51 2 0 18 -21 34 -47z m5138 -116 c21
-17 14 -75 -13 -102 -30 -31 -37 -31 -71 -2 -22 19 -26 29 -20 51 15 60 63 85
104 53z m-5335 -45 c31 -32 34 -58 11 -90 -25 -37 -76 -27 -99 19 -21 39 -19
65 7 83 32 23 51 20 81 -12z m-380 -117 c-3 -9 -8 -14 -10 -11 -3 3 -2 9 2 15
9 16 15 13 8 -4z m5920 -28 c10 -25 0 -99 -14 -108 -30 -19 -42 -11 -36 27 5
32 4 36 -13 31 -32 -8 -24 19 13 42 38 24 43 25 50 8z m-5765 -33 c27 -19 45
-59 37 -84 -8 -25 -52 -42 -75 -30 -47 25 -63 113 -22 123 31 8 37 7 60 -9z
m-255 -49 c-3 -9 -8 -14 -10 -11 -3 3 -2 9 2 15 9 16 15 13 8 -4z m6222 -145
c26 -29 22 -70 -9 -97 -32 -27 -53 -29 -78 -6 -28 25 -23 67 13 97 37 31 50
32 74 6z m-6131 -22 c47 -67 -18 -144 -71 -85 -57 62 -50 107 17 107 29 0 43
-6 54 -22z m6322 -229 c17 -48 17 -76 -2 -83 -22 -9 -34 1 -34 30 0 13 -4 25
-10 25 -5 1 -16 2 -22 3 -18 3 -11 25 15 47 29 24 38 20 53 -22z m-6521 5 c33
-35 33 -78 1 -99 -43 -28 -106 7 -106 58 0 22 43 67 65 67 9 0 27 -12 40 -26z
m6690 -248 c19 -48 14 -66 -15 -66 -12 0 -20 8 -22 23 -2 14 -11 23 -25 25
-28 4 -29 10 -1 39 31 33 44 29 63 -21z m-6876 -2 c25 -32 27 -57 5 -78 -22
-23 -34 -20 -34 8 0 14 -9 31 -21 40 -15 10 -19 20 -14 35 9 29 39 26 64 -5z
m7012 -241 c11 -25 18 -54 17 -62 -6 -28 -32 -23 -46 8 -7 17 -22 33 -33 36
-25 8 -24 29 4 48 32 23 36 22 58 -30z m-7146 12 c43 -42 25 -107 -28 -107
-53 0 -85 47 -63 91 25 47 55 53 91 16z m7283 -282 c22 -55 25 -85 11 -94 -23
-14 -28 -11 -37 24 -6 22 -15 33 -30 35 -30 5 -28 28 6 46 37 20 38 20 50 -11z
m-7427 -17 c12 -43 0 -86 -22 -86 -13 0 -19 7 -19 22 0 12 -10 32 -21 45 -19
19 -20 25 -9 38 21 26 62 15 71 -19z m7559 -286 c24 -24 26 -67 3 -92 -21 -24
-42 -23 -70 4 -30 28 -30 72 -1 92 30 21 44 20 68 -4z m-7666 -6 c18 -18 21
-56 6 -85 -16 -29 -75 -26 -95 5 -39 60 39 130 89 80z m-84 -336 c13 -25 13
-31 0 -55 -21 -38 -71 -44 -94 -11 -19 26 -20 51 -5 79 16 31 79 23 99 -13z
m7850 13 c14 -26 13 -74 -2 -89 -18 -18 -69 -15 -84 6 -18 23 -17 67 2 86 22
23 71 20 84 -3z m-7936 -347 c38 -37 1 -123 -47 -108 -36 11 -47 25 -47 60 0
38 22 64 55 64 13 0 31 -7 39 -16z m8009 -16 c27 -36 15 -78 -26 -92 -22 -8
-31 -6 -46 9 -31 32 -34 59 -10 89 26 33 54 31 82 -6z m-8065 -341 c3 -52 1
-57 -18 -57 -15 0 -20 6 -20 24 0 35 -10 56 -26 56 -21 0 -17 16 9 28 42 20
52 11 55 -51z m8097 3 c8 -55 2 -70 -26 -70 -15 0 -19 7 -19 35 0 24 -5 35
-15 35 -21 0 -19 27 3 39 37 22 50 13 57 -39z m-8120 -330 c0 -42 -3 -55 -15
-55 -8 0 -20 14 -25 31 -6 17 -16 38 -23 47 -11 13 -10 17 5 26 10 6 27 10 38
8 17 -2 20 -9 20 -57z m8138 21 c11 -45 1 -83 -21 -79 -11 2 -18 15 -20 36 -2
20 -9 32 -18 32 -20 0 -18 27 4 39 28 17 45 8 55 -28z m-8120 -328 c4 -37 2
-51 -10 -60 -22 -17 -33 -7 -33 28 0 18 -7 33 -20 41 -25 16 -25 25 -2 31 51
14 59 9 65 -40z m8105 -15 c-2 -40 -7 -54 -20 -56 -11 -2 -18 7 -23 30 -4 18
-12 38 -17 45 -15 18 0 33 33 33 30 0 30 0 27 -52z m-8073 -290 c12 -73 11
-83 -10 -83 -14 0 -21 8 -23 25 -2 14 -13 32 -25 42 -18 14 -19 19 -8 32 7 9
24 16 37 16 18 0 24 -7 29 -32z m8033 -12 c5 -41 -6 -76 -23 -76 -8 0 -16 8
-16 18 -3 38 -5 43 -18 51 -24 15 -5 43 26 39 22 -2 29 -9 31 -32z m-7985
-283 c3 -5 8 -29 12 -55 6 -40 4 -49 -10 -54 -20 -8 -35 11 -35 43 0 13 -9 28
-20 35 -11 7 -20 16 -20 20 0 13 66 23 73 11z m7932 -54 c0 -43 -3 -54 -17
-57 -12 -2 -19 5 -23 25 -4 15 -10 36 -16 45 -13 25 -12 28 14 38 36 14 42 7
42 -51z m-7835 -239 c37 -37 15 -110 -32 -110 -52 0 -81 96 -35 118 32 16 45
14 67 -8z m7776 -11 c13 -15 15 -26 8 -50 -5 -18 -16 -36 -25 -42 -24 -15 -68
0 -81 28 -31 69 46 121 98 64z m-112 -275 c32 -31 8 -104 -33 -104 -27 0 -61
30 -61 53 0 55 59 87 94 51z m-7583 -15 c6 -12 15 -35 19 -50 7 -25 6 -29 -10
-29 -11 0 -26 12 -34 29 -9 16 -23 31 -32 35 -13 5 -14 9 -4 21 18 22 47 18
61 -6z m143 -261 c43 -61 -22 -130 -76 -81 -26 24 -24 77 5 91 35 17 55 14 71
-10z m7299 10 c25 -19 39 -74 22 -88 -18 -15 -35 -5 -35 19 0 10 -12 26 -26
36 -20 13 -23 19 -13 31 14 17 30 18 52 2z m-7155 -250 c17 -17 15 -68 -5 -90
-18 -20 -45 -23 -74 -8 -26 14 -27 84 -1 99 23 14 65 14 80 -1z m7042 -18 c12
-17 20 -38 18 -48 -5 -25 -42 -22 -46 4 -2 12 -14 27 -28 34 -33 18 -31 40 5
40 21 0 36 -8 51 -30z m-134 -200 c33 -21 50 -51 39 -70 -10 -16 -26 -12 -49
13 -12 12 -31 27 -41 33 -12 6 -16 16 -12 27 8 22 23 21 63 -3z m-6798 -48
c10 -31 11 -47 4 -54 -15 -15 -42 -2 -42 21 0 11 -10 27 -22 35 -22 16 -22 16
-3 31 31 23 47 14 63 -33z m6695 -153 c29 -39 13 -83 -32 -87 -56 -6 -87 44
-65 103 10 26 73 16 97 -16z m-6529 -38 c17 -18 17 -21 0 -46 -18 -28 -52 -50
-62 -40 -3 3 -1 19 5 35 9 23 8 30 -4 34 -12 5 -13 9 -3 21 17 21 43 19 64 -4z
m6357 -171 c37 -37 37 -78 0 -97 -49 -24 -102 31 -87 91 5 21 18 30 49 35 5 0
22 -12 38 -29z m-6193 -6 c29 -20 28 -55 -3 -88 -25 -28 -63 -34 -83 -14 -22
22 -14 75 14 97 32 25 43 26 72 5z m6017 -205 c36 -66 21 -85 -27 -35 -19 20
-40 36 -47 36 -15 0 -14 23 1 38 23 23 45 12 73 -39z m-5867 29 c19 -19 14
-39 -15 -70 -40 -42 -55 -37 -47 15 10 62 33 84 62 55z m5709 -153 c23 -16 37
-57 28 -86 -4 -11 -19 -21 -41 -25 -28 -5 -40 -2 -60 17 -26 25 -33 76 -12 97
16 16 59 15 85 -3z m-5507 -16 c23 -43 -13 -109 -60 -109 -33 0 -50 17 -50 51
0 64 84 108 110 58z m5331 -148 c36 -36 38 -75 5 -96 -17 -12 -30 -13 -49 -6
-55 21 -77 98 -34 119 35 17 46 14 78 -17z m-5146 -7 c14 -15 14 -19 -7 -52
-12 -21 -29 -42 -38 -49 -23 -18 -35 2 -17 30 14 21 14 24 -1 33 -14 9 -13 13
6 32 26 26 35 27 57 6z m4952 -136 c41 -38 27 -108 -22 -108 -55 0 -100 87
-60 117 27 19 55 16 82 -9z m-4790 1 c21 -21 -30 -109 -64 -109 -17 0 -16 10
3 32 14 15 15 20 3 34 -11 14 -10 19 10 35 27 22 33 23 48 8z m221 -141 c21
-21 14 -77 -13 -103 -28 -29 -42 -31 -67 -8 -28 25 -19 92 16 115 17 12 51 9
64 -4z m4346 -14 c30 -30 34 -69 9 -96 -22 -24 -45 -23 -71 5 -30 32 -38 79
-17 100 23 24 48 21 79 -9z m-4100 -122 c3 -5 -3 -31 -13 -58 -27 -71 -74 -95
-50 -25 6 17 8 39 5 47 -10 26 44 59 58 36z m3830 -19 c20 -40 29 -90 17 -97
-11 -7 -41 20 -41 37 0 7 -9 23 -20 37 -13 18 -16 28 -8 37 17 21 36 15 52
-14z m-3567 -109 c9 -23 -22 -109 -41 -112 -14 -3 -16 4 -13 51 3 30 8 60 11
66 10 16 36 13 43 -5z m3303 -38 c12 -30 19 -60 15 -65 -13 -22 -36 -10 -51
29 -9 22 -20 40 -25 40 -13 0 -11 24 3 38 22 22 36 12 58 -42z m-3026 -62 c23
-23 21 -89 -4 -114 -11 -11 -26 -20 -34 -20 -46 0 -63 88 -26 128 25 26 43 28
64 6z m2750 -41 c21 -62 20 -83 -3 -83 -13 0 -20 9 -24 30 -4 16 -15 38 -26
49 -17 17 -18 20 -3 35 26 26 39 19 56 -31z m-275 -57 c14 -15 23 -38 24 -59
2 -90 -91 -90 -109 0 -5 26 -1 37 19 57 32 32 38 32 66 2z m-2199 -35 c0 -62
-7 -81 -31 -81 -16 0 -18 6 -13 44 4 28 2 46 -5 51 -17 10 5 35 30 35 16 0 19
-8 19 -49z m304 -33 c32 -45 7 -128 -37 -128 -49 0 -72 78 -37 123 26 33 53
35 74 5z m1596 -29 c22 -80 -9 -120 -35 -45 -8 21 -19 42 -26 46 -9 6 -8 12 2
24 25 28 47 19 59 -25z m-1322 -66 c-3 -60 -5 -68 -23 -68 -17 0 -20 6 -19 43
0 23 -3 42 -8 42 -12 0 -10 24 4 38 7 7 20 12 30 12 17 0 19 -7 16 -67z m1048
46 c19 -21 23 -94 6 -111 -5 -5 -25 -8 -43 -6 -30 3 -36 8 -48 44 -13 38 -13
45 2 68 21 32 57 34 83 5z m-736 -19 c28 -28 28 -105 1 -120 -49 -26 -91 5
-91 67 0 35 29 73 55 73 8 0 24 -9 35 -20z m280 -71 c0 -52 -2 -59 -20 -59
-14 0 -20 7 -20 23 0 12 -7 35 -15 51 -20 37 -19 41 8 53 35 16 47 -2 47 -68z
m227 5 c5 -14 -34 -25 -64 -18 -13 4 -23 13 -23 21 0 10 11 13 42 11 23 -2 43
-8 45 -14z"/>
<path d="M5000 9151 c0 -17 5 -31 10 -31 6 0 10 11 10 24 0 14 -4 28 -10 31
-6 4 -10 -7 -10 -24z"/>
<path d="M5567 9173 c-11 -10 -8 -51 3 -58 6 -4 10 8 10 29 0 37 -2 41 -13 29z"/>
<path d="M4400 9065 c0 -14 4 -25 9 -25 4 0 6 11 3 25 -2 14 -6 25 -8 25 -2 0
-4 -11 -4 -25z"/>
<path d="M4117 9028 c-2 -8 2 -23 10 -33 13 -19 14 -18 7 10 -8 37 -10 39 -17
23z"/>
<path d="M6671 8944 c0 -11 3 -14 6 -6 3 7 2 16 -1 19 -3 4 -6 -2 -5 -13z"/>
<path d="M4990 8910 c-712 -59 -1382 -290 -1945 -671 -346 -235 -690 -573
-952 -939 -170 -238 -350 -586 -450 -875 -276 -793 -282 -1690 -17 -2468 205
-602 514 -1094 949 -1515 106 -103 306 -272 395 -335 518 -366 1049 -587 1635
-682 557 -91 1069 -71 1608 60 572 140 1159 444 1580 818 263 234 429 418 614
683 179 256 378 642 458 889 188 578 250 1131 189 1675 -64 574 -236 1081
-538 1587 -289 486 -718 915 -1196 1199 -146 87 -181 106 -330 180 -403 200
-833 324 -1310 379 -163 19 -545 27 -690 15z m-176 -256 c27 -10 18 -21 -14
-16 -16 2 -30 8 -30 13 0 10 21 12 44 3z m930 -10 c8 -22 5 -24 -22 -17 -12 3
-22 12 -22 19 0 20 37 17 44 -2z m-931 -46 c27 -36 16 -48 -32 -35 l-40 11 15
29 c17 32 30 31 57 -5z m945 -6 c15 -10 19 -142 4 -151 -7 -4 -12 -125 -14
-326 -2 -186 -7 -326 -13 -335 -18 -28 -23 38 -24 345 -1 247 -4 303 -16 319
-18 24 -19 50 -3 76 10 15 10 22 0 32 -6 6 -12 20 -12 30 0 14 8 18 33 18 17
0 38 -4 45 -8z m-952 -54 c21 -16 27 -78 10 -103 -14 -21 -16 -70 -16 -334 0
-295 -4 -340 -28 -316 -4 4 -8 149 -10 323 -3 263 -6 320 -18 333 -14 16 -13
60 2 107 4 14 38 8 60 -10z m-702 -94 c9 -4 21 -15 27 -26 11 -20 10 -20 -12
-4 -13 9 -31 16 -41 16 -10 0 -18 5 -18 10 0 11 20 13 44 4z m2331 -4 c3 -5 3
-10 -2 -10 -4 0 -19 -3 -33 -6 -24 -5 -24 -5 -6 10 23 19 32 20 41 6z m-2322
-51 c5 -20 -16 -49 -35 -49 -6 0 -6 -6 2 -15 7 -8 19 -15 26 -15 30 0 15 -24
-46 -69 -25 -19 -87 -75 -137 -125 l-93 -91 0 -213 0 -212 28 -13 c28 -12 51
-35 52 -51 0 -5 -12 1 -26 15 l-26 24 22 -38 c20 -34 21 -43 11 -76 -21 -70
-79 -95 -136 -57 -56 37 -60 105 -8 152 22 20 31 34 22 35 -8 0 -4 5 9 11 22
11 22 13 22 227 l0 216 107 107 c97 97 107 110 107 145 1 31 5 39 22 41 17 2
20 8 16 29 -9 47 49 68 61 22z m2369 -34 c17 -31 26 -60 23 -76 -3 -22 13 -42
106 -135 l109 -109 0 -206 0 -206 38 -43 c43 -50 50 -64 51 -106 1 -24 -7 -39
-34 -63 -23 -20 -30 -31 -20 -31 9 0 27 12 40 26 14 15 25 21 25 14 0 -7 -17
-30 -39 -51 -56 -56 -114 -51 -159 15 -30 44 -28 50 7 15 23 -23 38 -29 68
-28 l38 1 -32 10 c-54 18 -85 59 -88 118 -2 45 1 53 27 75 16 14 34 25 39 25
5 0 9 88 9 208 l0 208 -113 110 c-62 60 -128 121 -147 135 l-35 26 24 20 24
20 -23 30 c-25 34 -19 56 13 51 14 -2 31 -21 49 -53z m-1167 -25 c19 -8 19 -9
1 -9 -16 -1 -15 -4 7 -21 58 -46 56 -145 -3 -175 -63 -33 -136 -10 -165 50
-21 45 -14 78 25 116 21 21 39 29 67 30 30 0 34 2 18 9 -18 8 -18 9 5 9 14 0
34 -4 45 -9z m-771 -42 c20 -28 20 -59 1 -84 -12 -16 -14 -70 -15 -306 0 -281
0 -288 -20 -288 -20 0 -20 7 -20 289 0 236 -3 291 -14 300 -14 12 -15 78 -2
100 12 19 54 12 70 -11z m1476 -2 c0 -14 5 -28 10 -31 6 -3 10 -17 10 -30 0
-13 -4 -27 -10 -30 -6 -4 -10 -113 -10 -296 0 -282 0 -289 -20 -289 -20 0 -20
7 -20 288 -1 236 -3 290 -15 306 -30 40 -10 106 32 106 18 0 23 -6 23 -24z
m-2575 -107 c8 -11 -25 -40 -37 -33 -5 3 -8 14 -8 25 0 21 34 27 45 8z m3659
-11 c18 -25 21 -74 6 -83 -6 -4 -10 -69 -10 -162 l0 -156 41 -35 40 -35 -3
-358 c-2 -196 -6 -360 -10 -364 -24 -25 -28 23 -28 363 l-1 357 -39 27 -40 28
0 163 c0 90 -4 167 -9 173 -16 16 -18 48 -4 77 16 33 37 35 57 5z m-3714 -29
c0 -18 5 -20 38 -18 32 3 36 1 33 -16 -2 -11 -7 -98 -10 -194 -4 -122 -10
-176 -18 -178 -7 -3 -23 -13 -37 -24 l-26 -20 0 -360 c0 -312 -2 -359 -15
-359 -13 0 -15 48 -15 370 l0 369 35 28 35 28 0 154 c0 124 -3 156 -15 165
-19 14 -32 76 -16 76 6 0 11 -9 11 -21z m871 -35 l22 -36 -20 -26 c-27 -37
-56 -39 -81 -7 -17 21 -19 31 -11 53 24 63 57 69 90 16z m1109 26 c0 -5 -19
-23 -42 -40 -55 -40 -96 -40 -143 1 -20 18 -33 34 -30 37 3 3 13 -3 24 -12 39
-35 181 -24 181 14 0 6 2 10 5 10 3 0 5 -4 5 -10z m900 -26 c0 -17 -5 -24 -20
-24 -14 0 -20 7 -20 24 0 23 17 38 33 29 4 -2 7 -15 7 -29z m46 -1 c3 -16 7
-33 9 -39 6 -20 -25 -54 -50 -54 -23 0 -65 34 -65 52 0 13 12 9 25 -9 12 -16
14 -16 40 1 21 14 26 24 23 47 -6 37 10 38 18 2z m-3279 -71 c6 -4 17 -20 23
-36 9 -24 7 -36 -10 -68 -18 -34 -20 -57 -20 -214 0 -96 5 -207 11 -245 7 -46
7 -74 1 -82 -6 -7 -11 -105 -12 -232 -3 -276 -8 -345 -26 -345 -11 0 -14 56
-17 293 -2 160 -7 304 -12 320 -6 24 -5 26 11 20 16 -6 17 -4 7 8 -6 8 -10 28
-8 44 2 17 4 121 5 232 1 170 -1 206 -14 225 -20 28 -20 38 0 66 15 22 39 28
61 14z m4498 -6 c16 -11 17 -20 9 -67 -8 -50 -12 -299 -7 -479 1 -41 0 -209
-3 -372 -4 -254 -7 -298 -19 -298 -13 0 -15 40 -15 280 0 231 -3 285 -15 303
-9 14 -12 32 -8 47 4 14 8 125 10 248 4 189 2 225 -11 244 -20 29 -20 72 0 92
19 20 35 20 59 2z m-3338 -28 c39 -27 41 -41 8 -72 l-25 -23 -2 -229 c-3 -209
-5 -229 -20 -232 -17 -3 -18 13 -18 237 0 149 -4 242 -10 246 -14 9 -13 68 2
83 17 17 27 15 65 -10z m2175 -5 c19 -17 24 -53 9 -68 -6 -6 -11 -114 -13
-242 -2 -127 -6 -234 -10 -238 -23 -23 -28 19 -28 227 l0 220 -30 35 c-16 18
-30 37 -30 41 0 7 57 38 74 41 5 0 18 -6 28 -16z m-834 -292 c147 -76 384
-201 527 -278 271 -146 549 -293 770 -408 72 -37 213 -114 315 -170 102 -56
291 -160 420 -230 243 -132 341 -185 398 -217 18 -10 80 -43 138 -73 58 -31
122 -66 144 -80 46 -29 63 -50 31 -40 -15 4 -52 -9 -129 -50 -59 -31 -96 -47
-82 -36 14 11 21 21 15 21 -16 0 -68 -37 -58 -42 4 -3 2 -3 -4 -2 -18 5 -44
-7 -38 -16 3 -5 0 -12 -6 -16 -6 -3 -14 -2 -18 4 -4 7 -24 2 -56 -14 -28 -13
-56 -24 -63 -24 -33 0 2 25 128 94 73 40 135 77 137 83 2 5 -6 14 -18 19 -18
8 -42 0 -133 -48 -61 -31 -114 -58 -117 -58 -3 0 -9 30 -12 66 -4 41 -13 74
-23 85 -13 15 -15 30 -11 72 l7 52 -138 77 c-75 42 -166 92 -202 111 -141 73
-270 143 -385 207 -66 37 -165 91 -220 120 -55 29 -167 89 -250 133 -82 44
-199 106 -260 137 -60 32 -146 77 -190 101 -44 23 -121 63 -171 89 -50 27
-100 53 -110 59 -11 6 -90 49 -177 96 l-157 85 -48 -34 c-40 -29 -49 -32 -57
-20 -6 8 -25 19 -43 24 l-34 9 7 -62 c4 -34 9 -64 12 -67 4 -5 75 30 137 68
49 30 57 28 214 -57 70 -38 190 -102 267 -143 382 -203 866 -464 915 -493 54
-33 371 -204 546 -295 160 -84 197 -112 238 -182 60 -104 80 -342 74 -893 -4
-344 -6 -395 -22 -432 -28 -67 -96 -84 -176 -43 -55 28 -117 86 -204 190 -182
219 -361 379 -542 486 -111 65 -507 261 -659 326 -267 114 -549 214 -675 239
-84 16 -90 33 -9 24 131 -13 314 -70 580 -178 211 -86 683 -316 814 -397 190
-117 354 -262 501 -445 45 -55 103 -121 130 -146 55 -51 130 -85 167 -75 50
12 52 31 52 561 0 539 -7 615 -61 730 -42 88 -81 115 -474 330 -52 29 -167 92
-255 140 -253 139 -453 248 -690 374 -213 114 -260 139 -538 286 l-129 67
-102 -52 -103 -53 -32 19 -31 18 0 91 c0 81 -2 92 -21 103 -17 11 -27 11 -50
2 l-29 -12 0 -94 c0 -92 0 -94 -27 -107 -34 -17 -39 -16 -130 31 l-72 37 -68
-38 c-37 -21 -198 -103 -356 -183 -198 -99 -286 -148 -281 -157 4 -6 15 -21
26 -33 10 -11 16 -27 13 -35 -10 -23 -443 -231 -466 -224 -44 14 -10 41 166
131 163 83 180 94 177 115 -9 75 -17 67 128 141 74 38 248 127 387 199 139 71
262 129 274 129 12 0 44 -14 71 -30 27 -17 59 -31 71 -33 20 -2 22 3 27 61 6
69 2 72 -50 43 -34 -18 -36 -18 -70 2 l-36 20 -144 -75 c-80 -42 -203 -106
-275 -143 -151 -78 -393 -207 -447 -238 -34 -20 -38 -26 -38 -64 0 -34 -6 -46
-31 -67 -49 -41 -83 -45 -154 -16 -29 12 -36 10 -95 -25 -36 -20 -139 -77
-230 -125 -91 -48 -230 -122 -310 -165 -80 -43 -169 -89 -197 -103 -29 -14
-53 -29 -53 -34 0 -4 60 -38 134 -75 l133 -66 57 23 c32 13 73 34 92 46 19 13
42 24 52 24 9 0 51 18 94 41 72 37 101 41 61 8 -19 -17 -122 -75 -220 -126
-40 -20 -73 -39 -73 -42 0 -6 27 -22 187 -107 l102 -55 187 100 c104 56 197
101 209 101 12 0 62 -25 112 -55 50 -30 97 -55 105 -55 8 0 47 20 87 45 40 25
80 45 88 45 8 0 37 -12 64 -27 76 -41 79 -91 8 -124 -19 -9 -54 -26 -79 -38
-25 -11 -55 -21 -67 -21 -39 0 -25 26 27 50 34 16 52 31 56 47 13 52 -17 68
-64 34 -15 -10 -50 -30 -77 -44 l-50 -25 -28 20 c-16 11 -38 21 -51 21 -32 0
-154 -56 -354 -160 l-173 -90 -144 74 -145 74 -42 -22 -42 -21 25 -20 c40 -32
62 -37 86 -22 31 19 40 18 47 -9 6 -24 116 -93 189 -118 34 -12 42 -11 70 5
36 21 194 108 304 168 l71 39 69 -31 c55 -25 70 -28 78 -17 17 22 58 47 78 47
26 0 67 -45 67 -74 0 -37 -46 -69 -87 -61 l-33 6 0 -66 c0 -63 1 -67 31 -83
57 -31 94 -58 94 -67 0 -23 -47 -13 -103 22 l-61 38 -3 89 -3 88 -53 29 -53
28 -202 -103 c-111 -56 -211 -109 -223 -116 -19 -12 -30 -8 -108 39 -49 28
-89 51 -91 51 -1 0 -6 -11 -9 -25 -7 -29 -50 -35 -60 -9 -8 20 11 54 29 54 8
0 15 5 15 10 0 6 -21 10 -47 10 -32 0 -62 8 -90 24 -70 40 -75 40 -167 -5 -64
-32 -88 -49 -97 -71 -14 -34 -38 -36 -68 -4 l-23 24 21 21 c12 12 27 21 34 21
12 0 181 84 314 157 l52 28 38 -23 c21 -12 84 -45 140 -73 l102 -50 128 67
c70 37 163 86 205 108 79 42 89 54 63 76 -11 10 -49 -6 -204 -85 l-189 -98
-159 83 c-87 45 -162 86 -168 90 -5 4 -88 44 -184 89 l-173 82 -52 -29 c-57
-33 -64 -52 -23 -66 21 -8 34 -6 56 7 16 9 35 17 43 17 21 0 218 -104 215
-114 -2 -5 -55 -30 -119 -55 -64 -25 -124 -53 -135 -62 -10 -9 -29 -22 -41
-29 -21 -10 -27 -9 -48 11 -39 37 -28 71 34 103 29 15 35 15 54 2 19 -13 25
-13 59 4 53 27 54 35 12 61 -35 22 -37 22 -65 6 -38 -22 -70 -21 -99 2 -51 39
-67 43 -100 26 -25 -13 -30 -21 -24 -38 19 -60 17 -74 -10 -96 -38 -29 -43
-27 -50 17 -11 65 -10 64 -60 40 -25 -12 -45 -25 -45 -29 0 -14 51 -48 83 -55
18 -3 43 -14 57 -24 14 -10 62 -36 106 -58 l82 -41 190 96 c127 64 196 94 207
89 15 -6 12 -11 -21 -35 -36 -27 -374 -201 -389 -201 -4 0 -92 41 -196 92
-170 82 -191 90 -215 80 -14 -7 -23 -16 -20 -21 8 -13 525 -284 551 -289 13
-2 39 7 61 21 66 41 142 77 165 77 12 0 100 -40 196 -90 96 -49 183 -90 194
-90 28 0 129 52 129 67 0 18 37 53 55 53 13 0 52 -58 43 -64 -2 -1 -53 -28
-114 -58 l-111 -56 -197 99 -196 99 -80 -41 c-67 -34 -80 -45 -80 -65 0 -14
-6 -27 -14 -30 -7 -3 -178 78 -380 180 -202 103 -373 186 -381 186 -17 0 -21
-20 -17 -80 4 -45 5 -48 55 -73 29 -15 79 -42 112 -60 34 -18 169 -89 300
-157 229 -117 306 -157 530 -275 55 -29 208 -108 340 -175 356 -182 681 -351
820 -425 33 -18 128 -67 210 -110 150 -78 263 -137 385 -203 198 -107 232
-123 252 -117 11 4 108 54 216 112 482 257 722 383 729 383 4 -1 -5 -8 -22
-17 -16 -8 -93 -50 -170 -93 -77 -43 -176 -97 -220 -120 -44 -23 -109 -59
-145 -80 -36 -21 -130 -75 -210 -120 -80 -45 -154 -90 -165 -99 -43 -38 -39
-39 -210 53 -55 29 -165 86 -245 126 -79 39 -156 80 -170 89 -14 10 -41 24
-60 31 -19 7 -54 26 -77 41 -22 15 -52 30 -65 34 -12 4 -68 31 -123 60 -105
55 -270 141 -570 295 -99 51 -184 96 -190 100 -5 5 -104 56 -220 114 -115 59
-282 144 -370 191 -88 47 -216 112 -285 146 -69 33 -134 66 -145 72 -11 6 -83
45 -161 87 -77 41 -147 80 -156 85 -13 8 -14 25 -9 105 l6 94 85 49 c82 47
479 263 930 505 118 63 240 129 270 147 30 18 120 67 200 110 80 43 165 91
189 107 24 15 60 33 80 39 20 6 108 51 196 99 191 104 517 279 745 400 91 49
199 106 240 129 41 22 81 41 88 41 8 0 134 -62 280 -139z m1252 -126 c13 -14
21 -25 18 -25 -2 0 -15 11 -28 25 -13 14 -21 25 -18 25 2 0 15 -11 28 -25z
m1132 -32 c19 -17 26 -93 9 -93 -5 0 -9 -77 -10 -170 -2 -146 0 -171 13 -176
9 -3 14 -9 11 -13 -2 -4 5 -7 17 -7 12 1 23 -5 26 -13 3 -10 0 -12 -12 -8 -15
6 -14 3 3 -19 71 -90 -69 -196 -150 -115 -38 38 -40 91 -5 126 55 55 56 59 56
225 -1 120 -4 159 -15 174 -21 27 -19 62 5 86 24 24 28 25 52 3z m-5297 -13
c12 -14 16 -27 11 -47 -4 -15 -11 -46 -16 -68 -16 -69 -12 -282 5 -315 9 -17
19 -30 24 -30 4 0 16 -15 25 -33 17 -30 17 -36 3 -69 -20 -49 -57 -72 -100
-64 -92 17 -116 151 -32 172 14 3 22 10 20 15 -3 4 -13 6 -23 3 -9 -2 -7 1 6
7 21 12 22 17 22 153 0 105 -4 148 -15 170 -13 24 -13 27 -1 23 12 -5 11 0 -2
22 -15 26 -15 30 1 55 21 31 47 33 72 6z m3139 -184 c401 -208 461 -239 471
-246 6 -4 64 -36 130 -70 66 -35 189 -101 273 -147 84 -45 154 -83 156 -83 11
0 146 -83 156 -95 10 -12 10 -18 0 -30 -11 -13 -18 -12 -54 11 -22 14 -75 43
-118 64 -82 42 -88 41 -88 -19 0 -23 8 -31 50 -51 27 -13 59 -34 71 -46 61
-65 -76 -18 -281 96 -58 31 -199 107 -315 168 -115 60 -309 162 -430 226 -121
64 -226 116 -234 116 -8 0 -23 -8 -33 -17 -17 -16 -5 -23 249 -153 148 -76
313 -162 368 -192 55 -30 132 -72 170 -93 39 -21 108 -59 155 -85 47 -26 178
-96 293 -155 114 -60 206 -113 204 -119 -10 -29 -34 -27 -92 6 -33 19 -136 75
-230 123 -93 48 -204 107 -245 130 -41 23 -138 75 -215 115 -77 40 -165 88
-196 106 -31 19 -59 34 -63 34 -3 0 -6 -29 -6 -64 0 -46 -4 -67 -16 -77 -26
-21 -36 8 -30 86 l5 70 -59 38 c-32 21 -94 53 -137 71 -270 114 -305 153 -187
208 75 35 53 40 214 -47 47 -26 168 -89 270 -142 102 -53 190 -99 195 -103 6
-4 69 -37 140 -73 72 -36 159 -82 194 -101 57 -32 65 -35 75 -20 7 8 28 19 46
23 l35 8 -50 22 c-81 35 -829 419 -972 498 l-62 34 -138 -70 c-113 -58 -147
-71 -185 -71 -39 0 -52 5 -75 29 -15 17 -63 48 -106 71 l-78 41 -32 -19 c-35
-21 -497 -262 -503 -262 -10 0 -43 44 -38 52 3 4 17 8 32 8 15 0 43 8 62 18
19 10 133 71 252 135 119 64 223 117 231 117 8 0 46 -18 85 -41 l70 -40 51 28
51 28 61 -33 61 -33 67 38 c79 44 134 73 140 73 2 0 86 -42 185 -94z m-1879
24 c-46 -48 -100 -47 -152 2 -34 32 -28 38 16 16 46 -22 114 -16 140 14 9 11
17 14 20 7 2 -6 -9 -23 -24 -39z m1163 -107 c74 -42 75 -43 56 -64 -16 -18
-19 -18 -76 13 -53 30 -60 31 -81 18 -38 -24 -521 -274 -803 -416 l-270 -136
-46 22 -45 22 -66 -31 c-77 -37 -85 -46 -57 -61 27 -15 18 -27 -24 -32 -33 -4
-36 -2 -51 40 -10 24 -16 45 -14 46 15 12 205 96 218 96 9 0 27 -9 41 -20 14
-11 30 -20 37 -20 20 0 890 437 1043 524 57 33 80 32 138 -1z m273 -85 c34
-38 36 -61 9 -105 l-20 -33 80 -40 c44 -22 105 -54 137 -72 32 -17 103 -56
158 -86 55 -29 107 -60 116 -68 23 -20 39 -18 102 17 l57 31 131 -69 131 -68
-6 -96 c-7 -98 2 -149 26 -149 7 0 53 23 101 50 153 86 140 85 281 11 66 -35
147 -81 180 -102 63 -42 75 -46 94 -27 9 9 16 7 32 -7 23 -20 26 -45 8 -63
-18 -18 -41 -15 -80 12 -20 13 -110 62 -202 110 l-166 85 -116 -66 -117 -66
-46 25 -46 26 3 118 3 119 -111 58 -111 57 -34 -25 c-51 -39 -96 -43 -138 -11
-18 14 -36 26 -39 26 -4 0 -113 56 -243 125 -218 114 -239 123 -259 110 -29
-19 -264 -141 -425 -222 l-134 -67 -61 32 -61 32 -107 -55 -108 -56 0 -65 c0
-71 -6 -63 109 -137 19 -12 36 -28 39 -34 7 -22 -29 -27 -64 -8 l-33 18 -52
-34 -52 -33 -124 64 -123 65 -173 -89 c-94 -49 -187 -99 -205 -112 -29 -19
-38 -20 -64 -10 -17 6 -44 23 -59 37 -26 24 -28 30 -18 57 9 25 33 42 152 106
78 41 162 87 187 101 25 14 97 52 160 84 279 143 865 448 908 472 42 24 56 24
103 -3 35 -20 58 -52 46 -64 -3 -3 -28 3 -56 13 l-52 18 -55 -30 c-63 -34 -72
-44 -53 -56 33 -21 61 -21 89 0 37 26 44 26 70 -1 20 -21 20 -23 4 -35 -10 -7
-32 -13 -49 -13 -26 0 -37 -8 -63 -45 -28 -40 -36 -45 -69 -45 -49 0 -83 32
-83 77 0 18 -2 33 -5 33 -5 0 -78 -37 -550 -282 -602 -313 -625 -326 -625
-353 0 -29 42 -13 242 92 112 59 211 106 220 106 9 -1 64 -29 122 -62 58 -34
111 -61 118 -61 17 0 58 28 58 39 0 5 -8 11 -18 13 -21 6 -32 51 -32 135 0 45
4 54 28 71 50 36 218 122 238 122 11 0 42 -14 69 -31 l49 -31 130 68 c72 37
160 84 196 104 36 21 95 52 133 70 37 18 67 34 67 36 0 2 -11 14 -25 28 -57
57 -11 146 76 146 32 0 46 -6 70 -32z m-2801 -92 c0 -2 -8 -10 -17 -17 -16
-13 -17 -12 -4 4 13 16 21 21 21 13z m3009 -47 c37 -21 72 -39 77 -39 5 0 20
9 34 20 53 41 120 10 120 -55 0 -80 -74 -99 -143 -36 -23 21 -79 57 -124 80
-76 38 -95 56 -76 74 10 10 36 0 112 -44z m-1639 -108 c0 -6 -25 -24 -65 -47
-103 -58 -337 -185 -450 -244 -80 -41 -154 -88 -173 -107 -31 -33 -34 -34 -55
-20 -47 31 -35 41 160 143 103 53 249 131 323 172 74 41 145 74 158 74 13 0
34 11 47 24 21 21 55 24 55 5z m3973 -42 c50 -4 93 4 111 19 18 16 18 16 7 -5
-17 -33 -51 -53 -92 -53 -30 0 -43 7 -73 40 -44 49 -48 74 -5 31 17 -17 40
-32 52 -32z m-5329 11 c40 -15 93 -12 121 6 27 17 32 9 12 -17 -30 -39 -104
-52 -144 -24 -11 8 -26 29 -32 47 -9 28 -9 30 2 16 8 -10 26 -22 41 -28z
m2840 -14 c217 -115 399 -206 413 -206 10 0 13 -9 11 -27 -4 -32 -31 -42 -56
-20 -17 14 -91 54 -345 186 l-138 72 -52 -29 c-29 -17 -113 -61 -187 -99 -240
-124 -295 -155 -312 -174 -21 -25 -27 -24 -92 8 -55 26 -56 27 -76 8 -20 -19
-21 -20 -3 -33 10 -7 44 -27 76 -44 l57 -31 0 -127 c0 -146 6 -135 -107 -196
l-73 -38 0 -53 c0 -29 3 -53 6 -53 3 0 26 14 51 30 25 17 68 42 97 57 28 14
63 34 77 44 l26 19 -4 137 c-2 76 -5 162 -7 191 -2 40 1 52 12 52 8 0 31 9 51
19 20 11 131 70 247 130 l211 111 119 -63 c65 -35 177 -94 249 -131 l129 -68
107 56 107 57 54 -24 c110 -49 102 -82 -37 -148 -52 -24 -96 -48 -97 -54 -2
-5 -2 -48 0 -94 l4 -83 102 -49 c57 -26 125 -53 152 -60 53 -12 123 -48 144
-73 7 -9 27 -16 44 -16 68 0 141 -69 108 -102 -10 -10 -28 -5 -85 24 -40 20
-169 83 -288 141 -246 119 -225 96 -228 252 l-2 94 58 30 c32 16 69 38 82 48
l25 20 -26 17 c-26 17 -28 16 -117 -29 l-91 -45 0 -130 c0 -103 -3 -130 -14
-130 -15 0 -26 86 -26 201 l0 66 -237 121 -238 122 -75 -40 c-41 -22 -146 -76
-232 -120 l-158 -80 -1 -38 c-2 -77 2 -259 7 -297 l6 -40 -82 -45 c-45 -25
-132 -72 -193 -105 -61 -33 -112 -65 -114 -71 -2 -6 11 -17 29 -25 31 -13 36
-11 193 71 88 46 184 96 212 110 l53 25 -8 40 c-21 115 8 224 79 294 41 40
152 96 224 112 44 10 64 9 124 -6 110 -27 230 -107 268 -179 23 -44 33 -85 22
-91 -13 -9 -49 14 -49 31 0 8 -24 39 -53 67 -62 61 -143 97 -232 103 l-60 3
60 -15 c43 -11 71 -26 99 -52 39 -38 73 -99 60 -111 -4 -3 -9 -1 -11 6 -12 34
-52 80 -83 95 -44 22 -128 23 -178 2 -42 -17 -102 -71 -102 -92 0 -7 -4 -11
-9 -8 -5 4 -12 0 -14 -6 -3 -7 -6 -4 -6 8 -1 21 41 85 76 116 10 10 37 24 59
32 21 8 31 15 21 15 -41 2 -144 -65 -172 -110 -5 -9 -18 -28 -28 -42 -29 -40
-33 -134 -9 -173 38 -60 195 -134 284 -134 33 0 161 43 196 66 13 8 31 13 39
9 14 -5 12 -10 -11 -34 -71 -74 -241 -110 -356 -76 -30 9 -62 17 -70 19 -9 1
-21 5 -28 10 -7 4 -50 -13 -105 -42 -390 -208 -477 -247 -465 -209 3 6 101 64
219 127 314 168 312 167 270 190 -16 8 -59 -11 -245 -110 -124 -66 -232 -120
-239 -120 -6 0 -36 14 -65 31 -63 36 -67 64 -15 90 62 31 66 38 60 106 -3 39
0 67 7 76 6 7 48 35 93 62 45 26 84 56 86 66 3 10 2 56 0 102 l-6 85 -91 45
c-103 50 -135 79 -117 101 6 7 39 26 73 41 l62 28 58 -33 59 -32 22 20 c12 11
94 57 182 103 88 45 203 105 256 134 52 29 104 55 115 58 10 2 21 5 23 6 1 0
49 -23 105 -53z m-719 -13 c43 -49 22 -76 -34 -42 -33 20 -39 37 -19 57 18 18
26 15 53 -15z m-2415 -84 c21 -6 35 -27 53 -79 l15 -45 155 -5 c147 -5 157 -6
181 -29 38 -36 32 -43 -16 -21 -36 16 -66 20 -185 20 -79 0 -143 -4 -143 -8 0
-31 -81 -82 -128 -82 -32 0 -93 37 -99 60 -4 13 -2 13 9 0 17 -21 60 -50 73
-50 5 0 -4 9 -22 20 -75 45 -85 152 -19 200 40 29 71 34 126 19z m6044 2 c10
-1 33 -16 52 -35 28 -28 34 -41 34 -78 0 -56 -24 -106 -57 -119 -57 -21 -115
-5 -162 45 -24 25 -28 26 -145 26 -104 0 -126 -3 -155 -21 -46 -28 -54 -13
-11 22 34 29 36 29 161 29 l127 0 7 33 c4 17 14 42 22 55 16 26 67 52 92 47 9
-2 24 -4 35 -4z m-2900 -173 c126 -64 246 -135 258 -153 4 -5 8 -37 8 -70 l0
-59 -32 54 c-18 30 -55 71 -82 91 -46 35 -264 149 -285 149 -14 0 -181 -90
-243 -132 -78 -52 -96 -73 -116 -138 l-17 -55 -3 65 c-2 35 -1 74 2 85 3 13
43 43 108 82 137 81 250 141 267 142 8 1 69 -27 135 -61z m1529 25 c11 -11
-14 -33 -38 -33 -27 0 -35 8 -28 26 5 14 54 20 66 7z m236 -33 c112 -52 122
-62 103 -104 -14 -30 -55 -35 -101 -12 -17 9 -32 11 -42 5 -19 -12 -39 -11
-39 1 0 6 15 17 33 25 26 11 29 15 14 20 -9 4 -32 5 -50 2 -32 -5 -87 16 -87
32 0 16 61 61 82 61 12 0 51 -14 87 -30z m-3648 7 c9 -7 21 -22 27 -33 9 -18
8 -25 -7 -38 -22 -20 -40 -20 -65 -1 -14 11 -23 12 -33 4 -20 -17 -16 -29 10
-26 39 4 25 -26 -18 -39 -60 -18 -93 -16 -116 7 -36 36 -22 60 61 101 79 39
115 45 141 25z m3441 -75 c40 -21 89 -45 108 -52 19 -8 64 -31 100 -52 71 -42
101 -46 149 -22 17 9 39 13 48 9 21 -7 -59 -60 -228 -150 -62 -33 -135 -72
-162 -86 -47 -26 -52 -26 -91 -13 -22 8 -117 54 -210 102 l-169 87 -112 -57
-111 -57 -85 44 c-94 50 -105 52 -111 28 -7 -28 1 -42 43 -69 39 -24 44 -44
11 -44 -24 0 -131 45 -154 64 -10 9 -18 20 -18 25 0 23 40 54 94 72 l60 19 35
-23 c20 -13 57 -33 82 -44 l46 -20 106 59 106 59 178 -92 c98 -50 187 -98 198
-105 30 -22 50 -17 133 30 42 24 101 57 131 72 30 16 53 34 52 39 -2 10 -8 14
-186 109 -112 60 -145 82 -145 98 0 16 31 7 102 -30z m507 -167 c52 -26 47
-91 -8 -119 -49 -26 -95 1 -107 61 -12 58 53 91 115 58z m-936 -116 c29 -28
44 -48 33 -45 -12 4 -30 -5 -56 -28 -38 -35 -65 -38 -97 -14 -16 12 -26 63
-18 88 6 20 49 49 73 50 8 0 37 -23 65 -51z m1062 4 c38 -39 64 -95 71 -150
l5 -48 -29 56 c-16 32 -45 79 -65 107 -33 44 -38 62 -17 62 4 0 20 -12 35 -27z
m-267 -26 c20 -13 51 -29 68 -36 37 -15 96 -71 73 -70 -8 0 -54 19 -103 42
l-88 43 -177 -93 -176 -92 -123 64 c-68 36 -130 65 -138 65 -19 0 -18 39 1 46
8 4 36 -7 62 -24 27 -17 71 -41 98 -54 28 -13 59 -30 71 -37 18 -12 39 -4 199
78 98 50 183 91 187 91 5 0 25 -10 46 -23z m35 -113 c9 -4 17 -9 17 -13 0 -4
35 -25 78 -46 86 -43 112 -62 112 -80 0 -25 -30 -24 -61 3 -18 14 -70 46 -116
69 l-84 42 -107 -56 c-59 -31 -142 -76 -186 -100 -43 -23 -85 -43 -94 -43 -19
0 -142 71 -142 82 0 20 32 18 73 -6 24 -14 51 -26 61 -26 9 0 74 30 144 67
237 126 246 130 267 121 11 -5 28 -11 38 -14z m-797 -19 c27 -19 53 -35 58
-35 4 0 21 11 37 25 27 22 59 25 59 4 0 -20 -56 -59 -85 -59 -32 0 -155 72
-155 90 0 20 37 9 86 -25z m1404 -55 c0 -5 -5 -10 -11 -10 -5 0 -7 5 -4 10 3
6 8 10 11 10 2 0 4 -4 4 -10z m-5842 -166 c75 -69 149 -139 165 -155 l27 -29
0 -194 c0 -107 -3 -202 -6 -211 -4 -10 -67 -62 -140 -116 l-134 -100 0 -252 0
-253 33 -14 c17 -7 36 -16 41 -18 5 -3 6 0 2 7 -5 7 -1 9 9 4 11 -4 13 -8 6
-13 -8 -5 -7 -16 3 -41 19 -45 10 -84 -26 -114 -55 -46 -145 -21 -167 48 -14
41 -2 79 37 120 l27 28 0 256 0 257 51 40 c72 58 187 145 204 156 12 8 15 43
15 208 l0 199 -80 75 c-44 41 -114 105 -155 141 l-75 67 -67 0 c-54 0 -68 3
-68 15 0 12 16 15 80 15 l80 0 138 -126z m1878 118 c16 -10 34 -48 34 -70 0
-23 -27 -48 -61 -57 -33 -8 -89 36 -89 70 0 44 79 82 116 57z m2672 -28 c29
-33 28 -69 -3 -90 -30 -20 -63 -13 -102 20 l-28 25 19 35 c28 52 71 56 114 10z
m2037 21 c0 -5 -32 -12 -71 -15 l-71 -5 -147 -139 -146 -138 0 -198 0 -199
106 -83 c58 -46 121 -93 140 -106 l34 -22 0 -258 0 -258 30 -40 c40 -52 39
-93 -1 -139 -27 -30 -37 -35 -76 -35 -36 0 -50 6 -74 29 -28 29 -33 46 -29
106 2 32 13 49 33 51 7 0 26 6 44 13 31 12 31 14 38 94 6 78 1 415 -7 422 -1
1 -64 48 -138 104 -74 56 -137 108 -140 116 -3 8 -4 104 -2 214 l3 199 160
152 161 151 76 -3 c43 -2 77 -7 77 -13z m-1330 -26 c125 -66 136 -70 173 -67
31 3 37 0 40 -19 2 -13 -5 -27 -20 -37 -24 -17 -73 -22 -64 -7 3 5 -1 14 -9
21 -18 15 -186 100 -198 100 -4 0 -90 -45 -191 -100 -101 -55 -190 -100 -198
-100 -23 0 -109 50 -103 60 3 4 -5 6 -17 3 -19 -4 -20 -3 -8 6 22 15 38 14 87
-10 l43 -21 38 23 c96 59 329 179 347 179 11 0 47 -14 80 -31z m-2210 -16 c51
-13 62 -20 53 -30 -7 -9 -7 -13 1 -13 7 0 11 -26 11 -74 0 -88 8 -80 -174
-175 -66 -35 -130 -70 -143 -78 l-24 -16 58 -32 c32 -17 75 -41 96 -53 42 -24
67 -28 67 -10 0 20 32 48 55 48 13 0 33 -9 46 -20 23 -20 23 -21 5 -33 -64
-42 -64 -41 -4 -75 65 -37 78 -39 78 -12 0 15 7 20 24 20 50 0 44 -36 -10 -62
-35 -16 -35 -16 -112 24 -142 74 -347 175 -370 183 -46 14 -16 39 159 129 98
50 184 97 193 105 12 10 16 31 16 76 0 70 -5 75 -71 75 -47 0 -99 -27 -269
-141 -125 -83 -151 -91 -176 -54 -29 44 40 99 82 65 11 -10 17 -8 31 8 29 34
255 161 286 162 16 0 57 -8 92 -17z m613 -30 c42 -20 94 -47 114 -61 21 -13
60 -27 89 -31 41 -5 56 -12 73 -34 21 -28 21 -29 2 -43 -31 -22 -70 -17 -100
12 -14 15 -26 30 -26 35 0 4 -46 31 -102 59 -173 86 -218 144 -50 63z m-428
-82 l0 -69 73 -40 c39 -22 108 -58 152 -82 44 -23 88 -50 98 -58 18 -16 18
-17 0 -30 -10 -7 -45 -27 -77 -44 -63 -32 -116 -68 -116 -78 0 -4 33 -26 74
-49 l74 -42 149 77 c138 71 223 116 381 200 35 19 70 34 78 34 30 0 12 -27
-38 -57 -77 -46 -495 -263 -506 -263 -5 0 -21 -9 -35 -20 l-25 -20 -73 42
c-41 23 -122 65 -180 94 -99 50 -131 76 -109 89 5 3 38 -11 74 -31 l66 -36 47
31 c25 17 68 41 95 53 26 12 48 27 48 33 0 6 -35 31 -77 55 -43 24 -107 60
-143 80 l-65 36 -3 68 c-3 64 7 96 29 96 5 0 9 -31 9 -69z m-1985 -7 c44 -24
125 -67 179 -95 l99 -50 148 76 c81 41 151 75 156 75 5 0 59 -29 120 -64 61
-35 156 -87 210 -116 54 -29 158 -85 231 -124 73 -39 168 -89 210 -111 42 -23
140 -74 217 -115 77 -41 155 -81 173 -89 30 -14 46 -51 21 -51 -6 0 -68 31
-137 68 -70 38 -179 95 -242 127 -63 32 -142 72 -175 90 -33 18 -100 54 -150
80 -49 26 -157 83 -240 127 -82 44 -171 92 -198 105 l-47 25 -68 -36 c-37 -20
-104 -55 -148 -77 l-81 -41 -176 91 c-177 92 -222 106 -247 76 -7 -9 -11 -17
-9 -19 2 -1 69 -35 149 -75 80 -40 148 -76 153 -80 4 -4 -2 -16 -13 -26 -17
-15 -22 -16 -36 -4 -9 8 -91 52 -182 99 -92 47 -168 90 -170 97 -4 14 123 82
153 82 11 0 56 -20 100 -45z m3996 4 c33 -17 58 -36 56 -42 -2 -6 -30 -25 -63
-42 -32 -17 -103 -54 -156 -82 -54 -29 -103 -52 -110 -52 -19 1 86 65 180 111
45 22 82 43 82 48 0 4 -16 16 -36 27 l-36 19 -140 -73 c-130 -67 -141 -71
-161 -57 -12 8 -17 15 -11 15 9 0 197 99 274 145 36 21 55 19 121 -17z m-1783
-29 c19 -22 71 -58 122 -86 l90 -48 0 -86 0 -86 -92 -42 c-51 -23 -99 -41
-106 -41 -32 0 0 28 76 65 l81 40 -2 68 -2 67 -135 64 c-74 35 -139 72 -145
81 -8 12 -5 21 12 35 31 25 61 15 101 -31z m-1290 -25 c64 -37 134 -78 155
-91 35 -22 39 -22 73 -8 38 15 58 11 97 -23 36 -32 10 -94 -46 -106 -22 -5
-34 -1 -56 21 -15 15 -32 35 -37 43 -10 17 -33 30 -211 126 -68 36 -123 69
-123 73 0 7 21 31 27 31 2 0 57 -30 121 -66z m757 50 c9 -9 15 -24 13 -33 -2
-9 -65 -46 -157 -92 -84 -42 -157 -82 -162 -90 -5 -8 -9 -33 -9 -57 0 -43 0
-43 58 -69 31 -15 136 -68 232 -118 96 -51 200 -100 231 -109 63 -18 89 -46
89 -96 0 -38 -39 -80 -74 -80 -34 0 -90 28 -105 52 -17 28 -5 74 27 99 15 13
19 19 9 16 -11 -4 -78 25 -190 84 -94 49 -205 106 -244 127 l-73 36 0 71 0 71
135 69 c83 42 135 74 135 83 0 22 30 52 51 52 10 0 25 -7 34 -16z m815 -40
c17 -20 2 -67 -23 -72 -51 -10 -97 31 -77 68 13 25 81 28 100 4z m-3265 -86
c3 -51 5 -462 3 -913 l-3 -820 -47 -58 c-27 -32 -48 -63 -48 -69 0 -7 12 -24
26 -39 70 -73 12 -229 -86 -229 -60 0 -130 62 -130 115 0 16 4 14 19 -10 21
-35 62 -65 88 -65 12 1 8 6 -12 15 -58 27 -85 65 -85 117 0 29 64 86 106 94
21 4 39 15 45 28 6 11 29 42 50 68 l39 47 0 905 c0 772 2 906 14 906 11 0 16
-23 21 -92z m5377 -105 c0 -93 2 -184 3 -203 0 -19 2 -343 3 -721 l2 -685 61
-72 c34 -40 72 -75 85 -78 41 -10 80 -66 88 -124 6 -45 4 -57 -16 -86 -39 -57
-105 -71 -165 -34 -44 26 -51 45 -45 122 4 62 7 71 37 97 l33 29 -59 66 -59
67 0 872 c0 480 3 882 6 895 16 57 24 8 26 -145z m-5951 128 c24 -25 29 -38
29 -79 0 -41 -5 -55 -29 -81 -16 -17 -26 -31 -22 -31 4 0 18 11 31 25 30 32
37 25 14 -14 -19 -33 -68 -61 -104 -61 -55 0 -130 67 -130 116 0 15 5 12 20
-13 24 -40 68 -63 117 -62 36 2 35 2 -11 8 -102 15 -142 117 -72 187 29 29 41
34 81 34 38 0 52 -5 76 -29z m6655 -7 c50 -52 41 -127 -18 -168 -60 -42 -160
-2 -174 69 -8 44 0 67 38 104 26 25 40 31 76 31 38 0 50 -5 78 -36z m-2526
-16 c-1 -15 -36 -42 -67 -52 -33 -11 -30 17 5 43 30 23 62 27 62 9z m-2155
-26 c17 -10 102 -56 190 -102 88 -45 198 -103 243 -127 46 -24 150 -78 230
-120 81 -41 161 -83 177 -93 17 -9 83 -45 147 -79 65 -33 146 -78 180 -99 l63
-39 3 -116 c2 -95 0 -117 -11 -117 -18 0 -27 50 -27 147 l0 73 -37 18 c-115
58 -654 333 -748 382 -60 32 -191 99 -289 150 l-179 93 -114 -56 c-62 -32
-121 -66 -130 -77 -22 -25 -35 -25 -57 -1 -21 23 -38 10 154 113 69 37 136 67
150 67 14 1 39 -7 55 -17z m2019 -3 c33 -26 33 -53 1 -84 -30 -31 -77 -33
-105 -5 -26 26 -25 58 2 87 27 29 67 30 102 2z m-668 -55 c51 -34 81 -60 77
-67 -20 -36 -25 -37 -67 -13 -22 14 -61 30 -86 36 -53 14 -70 26 -70 51 0 17
35 49 53 49 5 0 47 -25 93 -56z m-198 -24 c28 -27 28 -34 -4 -59 -62 -48 -128
4 -77 61 21 24 54 23 81 -2z m1180 -33 c6 -7 8 -18 4 -24 -9 -14 -674 -363
-693 -363 -7 0 -37 12 -65 27 -50 26 -52 26 -78 10 -35 -23 -33 -40 9 -60 36
-17 50 -57 21 -57 -19 0 -136 70 -136 81 0 5 18 22 40 38 79 57 123 63 167 21
24 -21 43 -25 59 -11 5 4 92 51 194 104 102 53 246 129 320 170 74 41 138 75
141 76 4 1 11 -5 17 -12z m1242 -228 c0 -188 -3 -240 -12 -237 -34 11 -38 49
-32 258 7 194 11 219 37 220 4 0 7 -108 7 -241z m1023 191 c26 0 61 7 77 15
40 20 38 4 -2 -30 -28 -23 -39 -27 -80 -23 -49 5 -88 30 -110 71 -8 15 -2 14
28 -7 28 -19 51 -26 87 -26z m-5559 -21 c3 -34 6 -306 6 -605 l0 -543 33 -25
c17 -14 85 -64 150 -111 69 -52 119 -96 122 -108 3 -12 5 -212 3 -445 l-3
-423 -63 -57 c-60 -54 -63 -59 -61 -98 3 -39 5 -41 46 -52 54 -15 83 -57 83
-120 0 -37 -6 -50 -34 -78 -28 -28 -42 -34 -76 -34 -51 0 -97 30 -116 76 -21
50 -17 80 15 116 26 30 41 66 56 140 3 16 27 45 60 73 l55 47 0 428 0 427
-107 79 c-60 43 -129 95 -155 114 l-48 35 0 590 c0 325 3 600 6 613 11 39 21
24 28 -39z m1120 -73 c122 -63 253 -131 291 -151 160 -86 399 -209 523 -271
73 -36 136 -72 139 -80 10 -26 -12 -38 -38 -21 -13 8 -157 82 -319 165 -357
181 -602 306 -733 375 l-98 51 -36 -19 -35 -19 23 -16 c12 -8 79 -45 148 -81
69 -36 173 -90 231 -121 58 -31 142 -74 187 -97 45 -23 86 -47 89 -53 5 -8 1
-9 -10 -5 -10 4 -21 7 -25 7 -4 0 -18 9 -31 20 -13 11 -28 21 -34 21 -6 1 -20
3 -31 4 -36 4 -65 16 -60 25 7 11 -4 18 -37 24 -38 7 -139 62 -130 71 4 5 2 5
-5 2 -15 -9 -45 2 -37 14 4 7 -19 13 -28 7 -6 -3 -303 155 -318 168 -12 12
-12 16 5 29 30 22 117 65 134 65 8 0 114 -51 235 -114z m-1330 38 c3 -9 6
-475 6 -1037 0 -996 -1 -1023 -20 -1054 -18 -30 -18 -32 -2 -37 30 -10 62 -69
62 -115 0 -36 -6 -49 -34 -77 -37 -37 -27 -47 12 -11 25 22 25 22 13 0 -32
-61 -107 -80 -169 -43 -42 26 -60 71 -54 137 4 56 34 98 78 109 12 3 34 23 49
44 l27 38 -2 1014 c0 558 2 1022 6 1031 8 21 20 22 28 1z m3580 -15 c-4 -8 0
-9 15 -4 16 5 20 3 15 -9 -6 -16 -90 -62 -414 -228 -107 -55 -204 -106 -215
-113 -11 -6 -60 -33 -110 -60 -49 -26 -118 -63 -153 -82 -64 -35 -82 -36 -82
-3 0 15 37 38 163 101 89 44 241 123 337 174 211 113 444 235 448 235 2 0 0
-5 -4 -11z m146 -63 c0 -6 -145 -96 -154 -96 -4 0 -41 -20 -84 -44 -42 -24
-180 -96 -307 -161 -126 -65 -264 -138 -305 -164 -41 -25 -113 -66 -160 -91
-47 -26 -116 -63 -153 -84 -37 -21 -70 -37 -72 -34 -4 3 122 82 182 114 12 7
66 37 120 67 107 59 226 123 343 184 257 134 529 279 555 294 32 20 35 21 35
15z m-3161 -728 c8 -28 10 -19 12 57 1 50 4 70 6 45 12 -176 16 -212 27 -223
7 -7 15 -19 19 -27 3 -8 6 66 6 164 1 99 3 177 6 174 3 -2 7 -74 9 -159 2 -85
6 -172 10 -194 8 -54 38 -133 44 -116 4 11 6 11 13 0 8 -12 10 -12 18 0 5 7
14 10 21 6 8 -5 9 -10 1 -18 -16 -16 -14 -49 5 -85 27 -56 44 -41 45 41 1 57
2 66 9 43 5 -16 10 -62 12 -101 3 -76 13 -86 38 -39 10 18 16 21 22 12 16 -25
28 15 28 96 0 44 2 77 4 75 4 -4 14 -139 16 -224 1 -27 4 -45 6 -38 3 7 13 9
21 6 13 -5 15 -2 10 12 -9 22 0 55 15 55 5 0 8 -6 5 -14 -3 -7 5 -23 19 -35
l24 -21 1 303 c1 166 3 294 6 284 2 -9 9 -15 14 -12 5 4 9 -16 9 -44 0 -30 -5
-51 -12 -54 -10 -3 -10 -7 -2 -18 7 -9 13 -82 14 -204 2 -104 4 -216 4 -248 1
-31 2 -53 4 -48 5 15 50 -9 55 -28 3 -9 5 -6 6 9 1 20 3 22 11 10 8 -12 10 -9
10 13 0 15 -3 27 -7 27 -8 0 -8 16 3 245 3 72 6 172 7 223 1 50 5 92 9 92 5 0
8 -42 9 -92 0 -51 2 -136 4 -188 2 -52 5 -163 7 -247 1 -84 6 -144 10 -135 4
9 7 13 7 8 1 -5 7 -3 15 3 11 9 15 7 19 -9 3 -11 12 -20 21 -20 14 0 16 16 16
107 0 58 2 104 4 102 2 -2 10 -58 16 -124 14 -129 22 -150 44 -120 13 19 15
17 21 -18 4 -21 12 -36 19 -34 7 2 13 54 16 148 4 112 7 136 14 106 5 -21 6
-61 3 -90 -8 -76 11 -183 32 -183 13 0 16 8 13 33 -6 45 7 105 19 97 6 -3 7
-13 4 -23 -14 -34 -14 -57 -1 -96 23 -66 36 -55 36 29 0 42 4 76 9 76 5 0 12
-38 16 -84 5 -56 12 -86 20 -90 18 -6 24 11 17 53 -3 22 -1 32 5 28 6 -4 13
-29 15 -56 5 -51 23 -85 39 -75 5 3 9 16 9 29 0 13 5 27 10 30 6 4 10 -10 10
-34 0 -34 3 -41 19 -41 11 0 22 6 24 13 3 6 6 -2 6 -19 1 -36 27 -53 48 -31
11 11 14 60 15 233 0 120 3 193 7 162 11 -99 16 -70 13 70 -2 92 0 134 7 127
6 -6 12 -126 14 -305 3 -162 7 -306 10 -320 3 -19 10 -25 29 -23 18 1 29 -6
38 -23 8 -13 16 -24 20 -24 3 0 6 89 5 198 -1 108 -1 154 1 102 2 -52 8 -145
15 -207 l11 -112 27 2 c17 1 26 -3 26 -13 0 -30 30 -51 68 -47 30 4 36 1 39
-17 2 -12 10 -21 18 -21 8 -1 14 -6 13 -13 -2 -6 4 -9 12 -6 9 4 15 20 16 38
5 215 19 271 19 78 0 -102 2 -122 15 -122 9 0 15 9 15 25 0 14 4 25 9 25 5 0
12 8 15 18 3 9 4 -7 2 -36 -2 -32 0 -48 5 -40 6 9 9 5 9 -13 0 -37 30 -48 31
-11 0 25 1 25 16 -10 8 -21 21 -38 29 -38 12 0 14 51 14 303 0 167 3 307 7
310 3 4 17 -3 30 -15 23 -21 23 -25 23 -233 0 -117 4 -281 10 -366 12 -199 17
-319 13 -319 -1 0 -40 22 -85 49 -101 59 -564 320 -818 461 -538 298 -657 371
-765 472 -88 83 -137 149 -175 238 -45 106 -49 154 -48 510 l1 335 8 -242 c5
-133 13 -257 18 -275z m2004 385 c-22 -15 -23 -22 -23 -143 0 -100 -3 -129
-14 -133 -10 -4 -14 4 -14 31 0 20 -2 86 -4 146 -3 105 -2 109 21 128 23 17
26 17 40 2 15 -14 14 -17 -6 -31z m987 43 c0 -2 -7 -7 -16 -10 -8 -3 -12 -2
-9 4 6 10 25 14 25 6z m-1800 -21 c37 -19 39 -28 4 -15 -14 6 -37 10 -52 10
-21 0 -24 2 -12 10 20 13 26 13 60 -5z m-1163 -92 c-2 -21 -4 -6 -4 32 0 39 2
55 4 38 2 -18 2 -50 0 -70z m2909 82 c-11 -8 -25 -15 -30 -15 -6 1 0 7 14 15
32 19 40 18 16 0z m-1598 -66 c271 -143 401 -214 397 -217 -2 -2 -73 32 -157
76 -84 43 -164 83 -177 87 -14 4 -32 17 -41 28 -11 13 -29 20 -49 20 -17 0
-27 3 -21 7 5 3 -6 12 -25 19 -19 7 -35 17 -35 22 0 14 6 12 108 -42z m1547
41 c-3 -5 -12 -10 -18 -10 -7 0 -6 4 3 10 19 12 23 12 15 0z m-3977 -42 c2 -9
-26 -54 -62 -101 -36 -47 -66 -90 -66 -96 0 -6 47 -59 105 -118 l105 -108 0
-242 c0 -150 4 -244 10 -248 13 -8 -16 -65 -34 -65 -31 0 -38 26 -26 102 6 40
10 158 9 261 l-2 188 -94 97 c-52 53 -96 107 -100 120 -8 31 6 57 61 118 29
33 46 61 46 77 0 37 41 49 48 15z m5966 16 c9 -3 16 -14 16 -24 0 -10 19 -42
43 -70 86 -106 91 -116 73 -142 -9 -13 -57 -64 -106 -114 l-90 -91 0 -234 c-1
-129 1 -247 2 -263 2 -18 -3 -32 -14 -40 -37 -23 -40 1 -39 276 l1 263 77 75
c42 41 92 92 111 112 l34 37 -23 33 c-12 18 -44 59 -71 90 -46 54 -56 77 -41
91 8 8 8 8 27 1z m-623 -81 c34 -3 64 -1 77 6 25 13 30 0 7 -19 -11 -9 -13
-15 -5 -20 14 -9 -49 -40 -80 -40 -28 0 -61 17 -82 44 -25 31 -23 50 5 42 12
-4 47 -10 78 -13z m-197 -75 c3 -13 6 -64 6 -114 0 -80 3 -97 26 -138 15 -26
23 -50 20 -54 -4 -3 -23 11 -44 31 -36 36 -37 39 -41 123 -5 130 14 220 33
152z m-3917 -50 c-3 -8 -6 -5 -6 6 -1 11 2 17 5 13 3 -3 4 -12 1 -19z m4187 3
c36 -7 50 -45 59 -149 6 -79 -6 -91 -18 -16 -3 26 -10 56 -15 68 -7 17 -9 12
-10 -24 -5 -118 -20 -162 -20 -57 0 75 -8 106 -21 85 -5 -7 -9 -33 -10 -58 -1
-25 -5 -58 -8 -75 -6 -24 -9 -15 -15 47 -5 43 -12 75 -17 72 -5 -3 -10 -47
-11 -97 -1 -72 -2 -81 -7 -44 -6 48 -6 48 -24 27 -10 -12 -21 -30 -25 -40 -6
-17 -10 -18 -32 -7 -24 12 -25 17 -25 103 0 67 5 101 19 132 l19 42 66 -1 c36
-1 79 -4 95 -8z m-2519 -66 l30 -25 -37 21 c-21 11 -38 23 -38 25 0 10 17 2
45 -21z m90 -39 c-11 -8 -24 -12 -29 -8 -5 3 -1 9 10 13 31 12 39 10 19 -5z
m75 -200 c0 -2 -7 -7 -16 -10 -8 -3 -12 -2 -9 4 6 10 25 14 25 6z m-1717 -48
c-8 -59 -13 -61 -13 -5 0 26 4 47 9 47 5 0 7 -19 4 -42z m-106 -25 c-3 -10 -5
-2 -5 17 0 19 2 27 5 18 2 -10 2 -26 0 -35z m-1568 -68 c50 -25 105 -20 145
15 29 26 33 27 29 10 -3 -11 -21 -33 -40 -50 -26 -23 -43 -30 -76 -30 -63 0
-100 33 -122 110 -6 21 -4 20 14 -7 11 -18 34 -39 50 -48z m6474 -1 c55 -29
126 -14 164 35 10 13 11 10 2 -17 -15 -45 -53 -72 -101 -72 -69 0 -129 48
-128 102 1 22 1 22 16 -4 8 -15 29 -35 47 -44z m-883 26 c15 -11 30 -17 33
-14 3 3 11 -3 18 -14 7 -11 19 -18 26 -15 7 3 13 0 13 -7 0 -10 3 -10 15 0 12
10 15 9 15 -4 0 -10 5 -14 10 -11 6 3 10 -2 10 -13 0 -10 -6 -19 -12 -20 -7 0
-39 -4 -71 -8 -51 -6 -62 -4 -87 15 -28 20 -30 21 -47 4 -10 -10 -63 -49 -118
-87 -55 -38 -110 -78 -122 -89 l-23 -20 0 -406 0 -405 75 -71 75 -70 0 -62 c0
-49 3 -63 15 -63 10 0 15 -10 15 -31 0 -26 -3 -30 -17 -23 -10 4 -37 9 -60 12
-36 3 -43 1 -59 -23 -16 -25 -16 -31 -3 -69 11 -33 19 -42 42 -44 15 -2 41 3
57 12 29 14 30 14 30 -11 0 -33 -26 -52 -72 -53 -30 0 -45 8 -79 40 -40 38
-41 41 -37 90 6 62 35 97 95 113 43 11 43 12 43 57 0 44 -2 47 -75 108 l-75
63 0 432 1 432 42 31 c23 17 89 64 146 104 59 42 113 89 124 107 10 18 21 33
24 33 3 0 17 -9 33 -20z m170 -84 c-7 -7 -10 4 -9 30 1 39 1 39 10 9 5 -18 5
-33 -1 -39z m-3373 -88 c-3 -8 -6 -5 -6 6 -1 11 2 17 5 13 3 -3 4 -12 1 -19z
m3223 -108 c19 -6 71 -13 115 -15 86 -5 105 -16 53 -32 -20 -6 -32 -15 -30
-24 23 -94 53 -988 33 -959 -8 11 -11 -1 -12 -50 0 -36 -4 -76 -9 -90 -5 -16
-6 -4 -4 35 1 33 -1 62 -6 65 -5 3 -12 66 -16 139 -4 73 -10 127 -14 119 -10
-19 -32 -401 -24 -421 11 -30 -6 -147 -22 -147 -8 0 -14 6 -14 13 -1 94 -22
493 -29 527 -7 36 -9 19 -10 -86 -1 -72 -4 -205 -8 -296 -6 -159 -7 -165 -26
-160 -20 5 -20 11 -14 236 4 127 8 260 11 296 2 36 2 52 0 35 -8 -53 -15 -78
-22 -71 -3 4 -12 -8 -19 -26 l-12 -33 5 40 c3 22 8 49 11 60 4 16 3 18 -8 8
-8 -8 -15 -54 -20 -120 -15 -226 -30 -408 -34 -420 -2 -7 -14 -13 -25 -13 -15
0 -20 6 -20 28 0 77 31 694 40 807 23 278 30 353 40 381 5 16 11 63 14 104 2
41 4 76 5 78 2 5 39 1 71 -8z m-4540 -355 c0 -230 4 -355 10 -355 6 0 10 -9
10 -20 0 -11 -7 -20 -16 -20 -11 0 -14 -6 -9 -20 7 -21 -2 -24 -29 -14 -18 7
-22 59 -6 69 6 4 10 135 10 361 0 308 2 354 15 354 13 0 15 -46 15 -355z
m1897 313 c-3 -7 -5 -2 -5 12 0 14 2 19 5 13 2 -7 2 -19 0 -25z m60 -75 c-2
-21 -4 -4 -4 37 0 41 2 58 4 38 2 -21 2 -55 0 -75z m-585 23 c1 -20 -2 -39 -5
-43 -4 -3 -7 15 -7 42 0 55 10 56 12 1z m115 -8 c-3 -7 -5 -2 -5 12 0 14 2 19
5 13 2 -7 2 -19 0 -25z m350 -45 c-3 -10 -5 -2 -5 17 0 19 2 27 5 18 2 -10 2
-26 0 -35z m2900 -30 c-2 -16 -4 -5 -4 22 0 28 2 40 4 28 2 -13 2 -35 0 -50z
m-4094 -50 c3 -21 3 -299 1 -618 -5 -561 -6 -580 -25 -612 l-21 -33 36 -34
c31 -29 36 -40 36 -78 0 -31 -7 -54 -22 -74 -16 -20 -17 -25 -5 -15 24 19 39
48 48 91 l7 35 1 -43 c3 -112 -97 -185 -188 -137 -38 19 -81 71 -81 97 0 17 4
15 23 -13 29 -44 76 -67 119 -60 32 5 31 5 -14 11 -26 3 -56 14 -68 25 -26 24
-39 72 -29 110 9 30 54 75 76 75 6 0 25 21 42 47 l31 46 0 609 c0 512 2 608
14 608 8 0 16 -15 19 -37z m3211 6 c3 -17 6 -294 6 -614 0 -564 1 -583 20
-607 11 -14 32 -28 48 -31 30 -6 92 -60 92 -79 0 -6 -6 -5 -16 2 -13 12 -14
10 -3 -13 19 -43 4 -93 -39 -122 -51 -35 -92 -33 -130 6 -32 33 -49 80 -36
100 3 6 1 15 -5 19 -15 9 42 70 65 70 11 0 8 10 -11 37 l-25 38 0 612 c0 514
2 613 14 613 7 0 16 -14 20 -31z m-2015 -121 c-1 -73 0 -140 3 -148 3 -8 3
-11 0 -6 -2 4 -8 2 -13 -5 -5 -8 -9 46 -9 132 0 130 3 159 17 159 3 0 4 -60 2
-132z m128 40 c-3 -7 -5 -2 -5 12 0 14 2 19 5 13 2 -7 2 -19 0 -25z m1660
-555 c3 -290 9 -536 14 -545 11 -21 4 -40 -21 -56 -39 -24 -72 14 -45 54 13
20 15 95 15 552 0 291 3 532 7 536 22 21 26 -54 30 -541z m-2754 -5 c1 -299 6
-553 11 -565 7 -19 5 -23 -12 -23 -12 0 -24 -5 -27 -10 -10 -17 -35 9 -35 36
0 12 5 26 10 29 6 4 10 185 10 509 0 277 3 518 6 535 4 17 13 31 20 31 11 0
14 -94 17 -542z m3890 346 c3 -65 2 -128 -3 -139 -6 -14 -9 2 -9 51 -1 39 -3
113 -6 165 -3 61 -2 85 4 68 5 -14 11 -80 14 -145z m-2853 98 c0 -15 -2 -15
-10 -2 -13 20 -13 33 0 25 6 -3 10 -14 10 -23z m1330 -149 c0 -58 2 -64 45
-114 25 -29 45 -56 45 -61 0 -4 7 -8 15 -8 30 0 75 -31 91 -62 23 -45 14 -112
-21 -148 -72 -75 -205 -22 -205 82 0 48 13 75 53 109 l31 26 -44 47 -44 47 3
76 c1 42 5 81 8 86 11 19 23 -20 23 -80z m-2000 -11 c0 -68 -3 -82 -21 -98
-12 -10 -30 -31 -40 -45 l-19 -27 40 -40 c35 -35 40 -45 40 -87 0 -40 -5 -52
-33 -80 -61 -61 -154 -53 -197 17 -45 73 -5 165 81 188 21 6 39 14 39 19 0 4
18 29 40 54 38 43 40 48 40 111 0 52 3 66 15 66 12 0 15 -15 15 -78z m680 37
c0 -6 -4 -7 -10 -4 -5 3 -10 11 -10 16 0 6 5 7 10 4 6 -3 10 -11 10 -16z
m-432 -435 l-3 -326 -158 -95 -158 -96 3 -108 3 -109 -30 0 c-16 0 -41 -3 -55
-5 -14 -3 -10 0 10 8 l35 14 3 110 3 111 67 43 c108 69 165 104 205 128 l37
23 0 283 c0 297 4 345 26 345 12 0 14 -53 12 -326z m1502 12 c0 -269 2 -305
16 -317 9 -8 85 -54 168 -104 l151 -90 3 -112 c2 -106 4 -113 23 -113 32 0 76
-27 103 -63 55 -72 17 -198 -68 -227 -41 -13 -104 0 -128 27 -26 30 -48 81
-47 110 l1 28 11 -30 c23 -57 39 -77 79 -95 45 -20 89 -14 118 16 13 15 12 15
-12 0 -55 -36 -119 -17 -159 47 -27 44 -19 93 21 130 22 20 26 27 14 27 -16 0
-16 1 0 19 14 15 16 36 14 117 l-3 98 -159 92 c-87 51 -164 98 -169 103 -12
12 -23 600 -13 627 3 8 12 14 21 14 13 0 15 -38 15 -304z m1777 127 c-3 -10
-5 -2 -5 17 0 19 2 27 5 18 2 -10 2 -26 0 -35z m-2953 -374 c8 -385 7 -392
-13 -418 -44 -57 -69 -97 -75 -122 -5 -23 -1 -29 24 -39 75 -31 95 -119 39
-171 -72 -67 -189 -12 -189 90 0 23 10 38 44 66 31 25 46 46 50 70 4 19 25 55
46 81 l40 45 0 90 0 91 -37 -23 c-21 -13 -91 -56 -156 -96 -65 -40 -123 -73
-128 -73 -35 0 16 43 151 129 l155 98 6 284 c3 156 7 285 8 287 0 1 7 2 15 2
11 0 14 -73 20 -391z m844 111 l2 -275 175 -110 c156 -99 200 -135 163 -135
-7 0 -26 9 -43 21 -48 32 -294 179 -301 179 -4 0 -5 -43 -2 -95 4 -90 6 -97
35 -127 17 -18 40 -52 52 -75 12 -24 27 -43 35 -43 23 0 83 -67 90 -100 15
-77 -44 -172 -116 -185 -76 -14 -149 53 -147 136 l2 44 7 -44 c15 -98 129
-133 210 -65 26 22 30 32 30 76 0 45 -4 54 -40 91 -22 22 -43 38 -45 35 -3 -3
13 -23 35 -45 42 -42 49 -69 30 -117 -11 -31 -65 -66 -100 -66 -75 0 -129 87
-97 155 9 19 31 42 48 51 25 12 29 18 18 25 -13 8 -6 13 14 10 21 -3 -13 56
-57 98 l-36 35 0 404 c0 379 1 403 18 400 16 -3 17 -26 20 -278z m-558 -151
l0 -241 34 -34 c19 -19 40 -34 46 -34 7 0 0 10 -15 22 -32 25 -55 74 -55 116
0 23 9 35 40 56 98 65 202 -2 174 -112 -10 -39 -45 -70 -95 -83 l-34 -9 39 5
c85 9 116 57 105 162 -4 38 -6 102 -5 143 2 41 3 110 4 153 2 61 5 77 17 77
13 0 15 -32 15 -226 0 -256 -5 -277 -71 -321 -32 -21 -47 -25 -88 -21 -28 3
-62 14 -81 28 -56 40 -60 64 -60 325 0 202 2 235 15 235 13 0 15 -33 15 -241z
m-1986 -38 c9 -8 45 -17 79 -21 61 -6 61 -6 25 -14 -21 -5 -49 -5 -63 -2 -33
8 -82 55 -90 86 -6 23 -5 23 13 -5 10 -16 26 -36 36 -44z m4598 -6 c4 -17 1
-25 -8 -25 -8 0 -14 11 -14 25 0 14 4 25 9 25 5 0 11 -11 13 -25z m3 -45 c-3
-5 -16 -10 -28 -10 -18 0 -19 2 -7 10 20 13 43 13 35 0z m-5 -30 c0 -13 -11
-13 -30 0 -12 8 -11 10 8 10 12 0 22 -4 22 -10z m-4175 -113 c-11 -7 -37 -28
-57 -48 -42 -41 -49 -41 -17 -1 22 29 68 62 84 61 6 0 1 -6 -10 -12z m3474
-212 c-28 -41 -68 -65 -106 -65 -62 0 -134 73 -132 135 l1 30 8 -29 c12 -38
47 -75 88 -92 27 -12 37 -12 65 0 54 23 87 60 89 103 l1 38 4 -43 c3 -34 -1
-52 -18 -77z m-1779 -152 c0 -76 3 -168 6 -204 6 -63 8 -66 37 -75 20 -6 38
-22 51 -44 l19 -35 -34 33 c-19 17 -39 32 -44 32 -5 0 1 -7 13 -16 73 -51 61
-164 -21 -199 -18 -8 -25 -14 -17 -15 16 0 53 23 79 48 8 8 18 33 22 56 l6 41
2 -42 c1 -34 -5 -49 -29 -77 -60 -68 -142 -72 -201 -10 l-34 37 42 -28 c23
-15 48 -25 55 -22 9 4 8 6 -3 6 -10 1 -31 17 -48 36 -42 48 -44 114 -5 150 14
13 35 27 45 30 11 4 17 10 14 15 -3 4 2 13 10 20 12 10 15 47 15 206 0 123 4
194 10 194 6 0 10 -53 10 -137z m-1024 98 c92 -56 47 -201 -62 -201 -56 0
-114 66 -114 127 1 76 103 118 176 74z m429 -50 c-16 -10 -32 -17 -34 -15 -7
7 33 33 49 34 8 0 2 -8 -15 -19z m201 -42 c19 -38 18 -83 -5 -128 -50 -97
-168 -103 -228 -12 -13 19 -23 46 -23 60 1 26 1 26 14 -5 17 -37 57 -70 97
-79 43 -10 113 27 133 69 22 46 20 66 -9 106 -14 19 -25 36 -25 38 0 11 33
-24 46 -49z m814 47 c0 -2 -8 -10 -17 -17 -16 -13 -17 -12 -4 4 13 16 21 21
21 13z m-1587 -132 c55 -50 122 -46 180 11 15 15 27 24 27 19 0 -18 -39 -73
-59 -83 -33 -18 -96 -16 -132 5 -38 22 -80 94 -78 134 1 21 3 18 13 -14 7 -21
29 -54 49 -72z"/>
<path d="M5720 8560 c19 -13 30 -13 30 0 0 6 -10 10 -22 10 -19 0 -20 -2 -8
-10z"/>
<path d="M3790 7481 c16 -30 34 -38 25 -11 -5 17 -4 21 5 15 9 -5 11 -4 6 3
-4 7 -16 12 -27 12 -16 0 -18 -3 -9 -19z"/>
<path d="M6646 7569 c-14 -11 -26 -25 -26 -32 0 -6 12 1 28 15 15 14 34 28 42
31 13 5 12 6 -1 6 -9 1 -28 -8 -43 -20z"/>
<path d="M6690 7489 c0 -5 4 -9 10 -9 5 0 6 -8 3 -17 -6 -17 -6 -17 10 -1 22
22 21 33 -3 35 -11 1 -20 -2 -20 -8z"/>
<path d="M5230 8238 c-34 -37 -20 -72 26 -66 24 2 29 8 32 35 4 45 -28 63 -58
31z"/>
<path d="M4502 8278 c-20 -20 -14 -38 14 -38 20 0 25 4 22 22 -4 26 -19 33
-36 16z"/>
<path d="M5972 8264 c2 -11 11 -20 22 -22 13 -3 17 1 14 14 -2 11 -11 20 -22
22 -13 3 -17 -1 -14 -14z"/>
<path d="M7054 8156 c-8 -21 3 -36 27 -36 15 0 20 6 17 22 -4 27 -35 37 -44
14z"/>
<path d="M4196 8101 c-18 -29 28 -61 52 -37 13 12 13 18 2 30 -14 18 -46 21
-54 7z"/>
<path d="M2985 8010 c-12 -20 6 -50 30 -50 29 0 36 18 16 42 -17 20 -37 23
-46 8z"/>
<path d="M7474 7995 c-4 -9 -2 -21 4 -27 15 -15 44 -1 40 19 -4 23 -36 29 -44
8z"/>
<path d="M5158 7687 c-54 -29 -98 -55 -98 -58 0 -4 7 -10 16 -13 10 -4 47 11
94 39 42 25 85 45 95 45 10 0 49 -18 86 -41 65 -39 98 -46 106 -24 3 10 -173
105 -193 105 -5 -1 -53 -24 -106 -53z"/>
<path d="M7870 6299 c0 -75 29 -96 89 -65 57 30 56 40 -13 74 -36 18 -67 32
-70 32 -3 0 -6 -18 -6 -41z"/>
<path d="M7864 7515 c-4 -9 -2 -21 4 -27 15 -15 44 -1 40 19 -4 23 -36 29 -44
8z"/>
<path d="M7877 7006 c-10 -26 4 -47 27 -44 15 2 21 10 21 28 0 29 -38 41 -48
16z"/>
<path d="M2574 7515 c-8 -19 3 -35 25 -35 23 0 34 37 14 44 -23 9 -33 7 -39
-9z"/>
<path d="M2565 7010 c-11 -18 5 -50 26 -50 16 0 20 6 17 27 -3 28 -31 43 -43
23z"/>
<path d="M5250 7300 c0 -5 7 -10 16 -10 8 0 12 5 9 10 -3 6 -10 10 -16 10 -5
0 -9 -4 -9 -10z"/>
<path d="M2170 6743 c-31 -11 -50 -37 -50 -67 0 -70 63 -101 108 -53 29 31 28
72 -3 102 -25 26 -30 27 -55 18z"/>
<path d="M8200 6720 c-24 -24 -25 -39 -6 -85 13 -30 20 -35 49 -35 65 0 101
76 57 120 -11 11 -33 20 -50 20 -17 0 -39 -9 -50 -20z"/>
<path d="M1990 4481 c-12 -24 2 -61 24 -61 21 0 38 26 34 52 -4 31 -43 37 -58
9z"/>
<path d="M8460 4474 c-13 -23 -13 -27 5 -40 25 -18 28 -18 51 7 14 15 16 24 8
37 -18 28 -48 26 -64 -4z"/>
<path d="M2398 3784 c-50 -26 -46 -85 7 -120 47 -30 95 5 95 70 0 45 -58 74
-102 50z"/>
<path d="M8047 3772 c-26 -29 -22 -78 8 -98 47 -31 104 7 91 61 -13 53 -67 72
-99 37z"/>
<path d="M8165 3665 c-17 -16 -39 -35 -50 -42 -16 -10 -14 -10 13 -2 17 6 42
24 53 41 28 39 21 40 -16 3z"/>
<path d="M7985 3667 c6 -14 45 -41 51 -34 2 2 -10 13 -26 25 -16 12 -27 16
-25 9z"/>
<path d="M1895 5676 c-24 -36 -5 -76 35 -76 42 0 60 38 36 75 -21 31 -51 32
-71 1z"/>
<path d="M8558 5688 c-28 -24 -29 -48 -2 -74 23 -24 27 -25 47 -11 29 19 35
67 11 84 -22 16 -36 16 -56 1z"/>
<path d="M3182 2974 c-28 -20 -29 -63 -1 -98 16 -20 26 -25 43 -20 55 17 76
69 44 109 -22 29 -54 32 -86 9z"/>
<path d="M2715 3288 c-27 -15 -35 -28 -35 -61 0 -27 38 -77 59 -77 5 0 23 12
40 26 38 31 41 74 9 104 -24 22 -44 25 -73 8z"/>
<path d="M3851 4124 c0 -11 3 -14 6 -6 3 7 2 16 -1 19 -3 4 -6 -2 -5 -13z"/>
<path d="M4028 4018 c5 -5 16 -8 23 -6 8 3 3 7 -10 11 -17 4 -21 3 -13 -5z"/>
<path d="M7591 4654 c0 -11 3 -14 6 -6 3 7 2 16 -1 19 -3 4 -6 -2 -5 -13z"/>
<path d="M7607 4043 c-2 -5 -1 -62 1 -128 6 -133 19 -125 21 13 1 72 3 81 15
69 8 -7 14 -27 13 -43 0 -16 1 -49 3 -74 2 -34 5 -23 10 45 4 50 11 98 15 108
6 14 1 17 -33 17 -23 0 -43 -3 -45 -7z"/>
<path d="M7561 3984 c0 -11 3 -14 6 -6 3 7 2 16 -1 19 -3 4 -6 -2 -5 -13z"/>
<path d="M3572 2538 c-15 -15 -16 -70 0 -86 17 -17 45 3 53 40 6 24 3 35 -11
45 -22 16 -27 16 -42 1z"/>
<path d="M6959 2609 c14 -5 30 -13 36 -17 6 -4 2 1 -8 11 -11 9 -27 17 -36 16
-10 0 -7 -4 8 -10z"/>
<path d="M6898 2525 c-9 -19 -7 -29 6 -50 16 -24 19 -25 39 -12 29 19 34 55
10 72 -27 21 -42 18 -55 -10z"/>
<path d="M6309 3291 c-28 -22 -30 -78 -5 -116 22 -33 68 -34 101 0 70 69 -20
178 -96 116z"/>
<path d="M4093 3284 c-21 -21 -24 -32 -20 -61 8 -46 33 -73 68 -73 69 0 108
91 59 140 -28 28 -75 26 -107 -6z"/>
<path d="M6370 2380 c19 -4 44 -11 55 -14 20 -8 20 -7 1 8 -11 9 -36 15 -55
15 l-36 -1 35 -8z"/>
<path d="M6346 2301 c-21 -23 -20 -54 2 -74 26 -23 39 -21 58 8 31 48 -23 106
-60 66z"/>
<path d="M6487 2291 c2 -10 0 -36 -6 -57 -9 -35 -9 -37 4 -20 17 22 20 82 6
90 -5 4 -7 -2 -4 -13z"/>
<path d="M4712 2248 c-16 -16 -15 -39 3 -61 18 -25 48 -18 59 15 16 44 -30 78
-62 46z"/>
<path d="M5735 2240 c-32 -36 9 -92 43 -58 22 22 8 78 -18 78 -4 0 -15 -9 -25
-20z"/>
<path d="M5214 2684 c-8 -33 10 -74 34 -74 25 0 42 20 42 50 0 52 -64 73 -76
24z"/>
<path d="M5212 1898 c-7 -7 -12 -24 -12 -38 0 -50 47 -68 74 -28 20 28 20 43
0 62 -18 19 -45 21 -62 4z"/>
<path d="M4145 2296 c-12 -17 -13 -30 -6 -49 15 -38 28 -41 56 -13 30 30 31
47 7 69 -25 23 -39 21 -57 -7z"/>
<path d="M6940 8814 c0 -14 4 -23 10 -19 6 3 10 15 10 26 0 10 -4 19 -10 19
-5 0 -10 -12 -10 -26z"/>
<path d="M3010 8540 c0 -5 5 -10 11 -10 5 0 7 5 4 10 -3 6 -8 10 -11 10 -2 0
-4 -4 -4 -10z"/>
<path d="M7660 8405 c0 -14 5 -25 10 -25 6 0 10 11 10 25 0 14 -4 25 -10 25
-5 0 -10 -11 -10 -25z"/>
<path d="M7890 8216 c0 -9 5 -16 10 -16 6 0 10 4 10 9 0 6 -4 13 -10 16 -5 3
-10 -1 -10 -9z"/>
<path d="M2560 8186 c0 -14 5 -26 10 -26 6 0 10 9 10 19 0 11 -4 23 -10 26 -6
4 -10 -5 -10 -19z"/>
<path d="M2356 7996 c3 -9 11 -16 16 -16 13 0 5 23 -10 28 -7 2 -10 -2 -6 -12z"/>
<path d="M8307 7814 c-4 -4 -7 -14 -7 -23 0 -11 3 -12 11 -4 6 6 10 16 7 23
-2 6 -7 8 -11 4z"/>
<path d="M2176 7805 c4 -8 8 -15 10 -15 2 0 4 7 4 15 0 8 -4 15 -10 15 -5 0
-7 -7 -4 -15z"/>
<path d="M1972 7574 c1 -9 9 -19 16 -22 9 -3 13 2 10 14 -1 9 -9 19 -16 22 -9
3 -13 -2 -10 -14z"/>
<path d="M1654 7096 c-8 -22 3 -33 18 -18 9 9 9 15 0 24 -9 9 -13 7 -18 -6z"/>
<path d="M9080 6500 c0 -11 5 -20 10 -20 6 0 10 9 10 20 0 11 -4 20 -10 20 -5
0 -10 -9 -10 -20z"/>
<path d="M1402 6496 c1 -10 8 -17 13 -17 15 1 12 24 -3 29 -9 3 -13 -2 -10
-12z"/>
<path d="M1320 6181 c0 -12 5 -21 10 -21 6 0 10 6 10 14 0 8 -4 18 -10 21 -5
3 -10 -3 -10 -14z"/>
<path d="M9170 6175 c0 -8 5 -15 10 -15 6 0 10 7 10 15 0 8 -4 15 -10 15 -5 0
-10 -7 -10 -15z"/>
<path d="M1234 5837 c-9 -24 6 -44 18 -22 7 11 6 21 -1 28 -7 7 -12 6 -17 -6z"/>
<path d="M9240 5819 c0 -11 5 -17 10 -14 6 3 10 13 10 21 0 8 -4 14 -10 14 -5
0 -10 -9 -10 -21z"/>
<path d="M1350 3940 c0 -11 7 -20 15 -20 8 0 15 9 15 20 0 11 -7 20 -15 20 -8
0 -15 -9 -15 -20z"/>
<path d="M9115 3951 c-8 -15 3 -31 21 -31 9 0 14 7 12 17 -4 20 -24 28 -33 14z"/>
<path d="M9002 3664 c1 -9 9 -19 16 -22 9 -3 13 2 10 14 -1 9 -9 19 -16 22 -9
3 -13 -2 -10 -14z"/>
<path d="M1572 3389 c1 -13 8 -23 13 -21 15 3 12 35 -3 40 -9 3 -13 -3 -10
-19z"/>
<path d="M1720 3140 c0 -13 5 -20 13 -17 6 2 12 10 12 17 0 7 -6 15 -12 18 -8
2 -13 -5 -13 -18z"/>
<path d="M8518 2765 c-10 -10 4 -45 18 -45 8 0 14 4 14 8 0 14 -25 43 -32 37z"/>
<path d="M8350 2531 c0 -21 13 -41 26 -41 11 0 11 5 2 25 -11 24 -28 34 -28
16z"/>
<path d="M2162 2508 c-16 -16 -15 -28 2 -28 16 0 29 27 17 34 -4 3 -13 0 -19
-6z"/>
<path d="M8010 2181 c0 -12 2 -21 4 -21 2 0 12 -3 21 -6 13 -5 16 -2 13 17 -4
31 -38 39 -38 10z"/>
<path d="M2502 2178 c-16 -16 -15 -38 2 -38 17 0 30 30 18 42 -4 4 -13 3 -20
-4z"/>
<path d="M7836 2041 c-9 -14 4 -41 20 -41 8 0 14 6 14 14 0 18 -26 40 -34 27z"/>
<path d="M7640 1877 c0 -8 7 -21 16 -28 14 -11 15 -10 12 11 -3 26 -28 41 -28
17z"/>
<path d="M3076 1744 c-3 -9 -6 -25 -6 -36 0 -17 3 -18 15 -8 16 13 21 60 6 60
-5 0 -12 -7 -15 -16z"/>
<path d="M7427 1744 c-8 -8 13 -64 24 -64 14 0 11 46 -4 59 -8 6 -16 8 -20 5z"/>
<path d="M3878 1374 c-5 -4 -8 -21 -8 -38 0 -21 3 -27 11 -19 6 6 9 23 7 38
-2 15 -6 23 -10 19z"/>
<path d="M6347 1277 c-3 -7 1 -24 9 -38 l13 -24 1 32 c0 33 -14 52 -23 30z"/>
<path d="M4446 1214 c-9 -23 -7 -54 3 -54 11 0 21 25 21 51 0 23 -15 25 -24 3z"/>
<path d="M5760 1163 c0 -11 7 -28 15 -39 14 -18 15 -17 13 15 -3 36 -28 57
-28 24z"/>
<path d="M5040 1120 c0 -16 4 -30 9 -30 12 0 19 21 13 43 -7 28 -22 20 -22
-13z"/>
<path d="M1751 8694 c0 -11 3 -14 6 -6 3 7 2 16 -1 19 -3 4 -6 -2 -5 -13z"/>
<path d="M1740 1634 c0 -16 5 -24 13 -22 18 7 20 35 2 41 -11 5 -15 0 -15 -19z"/>
<path d="M5214 246 c-10 -26 1 -51 22 -54 27 -4 47 21 39 48 -7 24 -53 28 -61
6z"/>
</g>
</svg>
